<svg id="broek" xmlns="http://www.w3.org/2000/svg" viewBox="0 0 595.28 968.5"><defs><style>.cls-1{fill:#b6b390;}</style></defs><path class="cls-1" d="M361.14,436.83s-.82,32.52-1,40.87-2,70.46-2.46,74.38c0,0,2.29,2.46.5,8a9.94,9.94,0,0,1-.17,6,337.74,337.74,0,0,1,1.47,51.17c-1.47,25.83,0,62.44-.16,67.68s2.12,3.1-.34,8.66c0,0,4.76,7-8.82,9.32S325,702.64,325,699.05s-1.14-6.88-1.14-7.68,1-2.63-.49-3.11.16-3.44.49-4.09-4.58-75.69-5.72-87.13-2.29-23.7-2.46-28a4.67,4.67,0,0,0,.5-5.07c-1.47-2.78,0-3.76.65-5.07,0,0-2.12-2.39-2.77-13.94S303,489.79,297.23,482.93C291.5,489.79,281,533.45,280.39,545s-2.78,13.94-2.78,13.94c.65,1.31,2.12,2.29.65,5.07a4.68,4.68,0,0,0,.49,5.07c-.17,4.26-1.31,16.51-2.45,28s-6.06,86.48-5.72,87.13,2,3.6.48,4.09-.48,2.29-.48,3.11-1.14,4.08-1.14,7.68-11.62,6.21-25.18,3.92-8.84-9.32-8.84-9.32c-2.44-5.56-.15-3.43-.32-8.66s1.31-41.85-.16-67.68a339.26,339.26,0,0,1,1.47-51.17,9.94,9.94,0,0,1-.17-6c-1.79-5.56.49-8,.49-8-.49-3.92-2.28-66-2.45-74.38s-1-40.87-1-40.87c-.82-9.33.77-11.61.77-11.61,1.42-6.05.05-8,.05-8-.44-7,2.18-17,2.18-17,19.08,9.25,60.93,7.61,60.93,7.61s41.85,1.64,60.91-7.61c0,0,2.63,10,2.18,17,0,0-1.37,1.91.05,8C360.37,425.22,362,427.5,361.14,436.83Z"/><path class="cls-1" d="M361.14,436.83s-.82,32.52-1,40.87-2,70.46-2.46,74.38c0,0,2.29,2.46.5,8a9.94,9.94,0,0,1-.17,6,337.74,337.74,0,0,1,1.47,51.17c-1.47,25.83,0,62.44-.16,67.68s2.12,3.1-.34,8.66c0,0,4.76,7-8.82,9.32S325,702.64,325,699.05s-1.14-6.88-1.14-7.68,1-2.63-.49-3.11.16-3.44.49-4.09-4.58-75.69-5.72-87.13-2.29-23.7-2.46-28a4.67,4.67,0,0,0,.5-5.07c-1.47-2.78,0-3.76.65-5.07,0,0-2.12-2.39-2.77-13.94S303,489.79,297.23,482.93C291.5,489.79,281,533.45,280.39,545s-2.78,13.94-2.78,13.94c.65,1.31,2.12,2.29.65,5.07a4.68,4.68,0,0,0,.49,5.07c-.17,4.26-1.31,16.51-2.45,28s-6.06,86.48-5.72,87.13,2,3.6.48,4.09-.48,2.29-.48,3.11-1.14,4.08-1.14,7.68-11.62,6.21-25.18,3.92-8.84-9.32-8.84-9.32c-2.44-5.56-.15-3.43-.32-8.66s1.31-41.85-.16-67.68a339.26,339.26,0,0,1,1.47-51.17,9.94,9.94,0,0,1-.17-6c-1.79-5.56.49-8,.49-8-.49-3.92-2.28-66-2.45-74.38s-1-40.87-1-40.87c-.82-9.33.77-11.61.77-11.61,1.42-6.05.05-8,.05-8-.44-7,2.18-17,2.18-17,19.08,9.25,60.93,7.61,60.93,7.61s41.85,1.64,60.91-7.61c0,0,2.63,10,2.18,17,0,0-1.37,1.91.05,8C360.37,425.22,362,427.5,361.14,436.83Z"/></svg>