<?xml version="1.0" encoding="utf-8"?>
<!-- Generator: Adobe Illustrator 26.3.1, SVG Export Plug-In . SVG Version: 6.00 Build 0)  -->
<svg version="1.1" xmlns="http://www.w3.org/2000/svg" xmlns:xlink="http://www.w3.org/1999/xlink" x="0px" y="0px"
	 viewBox="0 0 128 128" style="enable-background:new 0 0 128 128;" xml:space="preserve">
<style type="text/css">
	.st0{display:none;}
	.st1{display:inline;}
	.st2{fill:#282828;}
	.st3{display:inline;fill:#282828;}
</style>
<g id="Layer_1" class="st0">
	<g class="st1">
		<path class="st2" d="M123.8,85.3c4.5-17.9-12-75.5-60-75.5C18.7,9.7,1.7,61.8,3.3,85.3H123.8z"/>
		<path class="st2" d="M63.8,9.7c0,0,31.7,13.9,26.8,62.9H36C36,72.6,32,26.8,63.8,9.7z"/>
		<path class="st2" d="M3.3,85.3c0,0,51-36.5,120.5,0c0,0-2.7,9.5,0,14.8c2.7,5.2-3.2,16.3-29.3,0c-13.8-8.6-42.7-8.7-56.5-1.8
			c-9.6,4.8-37.9,19.5-33.1,1C6.6,92.7,3.3,85.3,3.3,85.3z"/>
	</g>
</g>
<g id="Layer_2" class="st0">
	<path class="st3" d="M119.3,52.6L119.3,52.6L119.3,52.6C119.3,52.6,119.3,52.6,119.3,52.6c-0.4-1.1-1.1-2-2-2.7h0
		c-0.7-0.6-1.6-1.1-2.6-1.4c-1.7-0.5-3.3-0.9-4.8-1.3l0,0c-18.7-4.4-32-0.9-38.6,0.9c-2.2,0.6-4.4,0.9-6.6,0.9h-1.2
		c-2.3,0-4.6-0.3-6.8-0.9c-6.6-1.8-19.9-5.2-38.5-0.9l0,0c-1.6,0.4-3.2,0.8-4.9,1.3c-1,0.3-1.8,0.8-2.6,1.4c-0.9,0.7-1.6,1.7-2,2.7
		v0h0c-0.4,1.1-0.6,2.3-0.4,3.5c0,0.2,0.1,0.3,0.1,0.5c0.4,1.9,1.6,3.5,3.1,4.7c1.1,0.9,2.5,2.6,2.7,5.9c0,0,0.7,14,12.2,15
		c11.5,1.1,24.2,1.8,28-6.9c3.7-8.7,1.8-18.2,9.6-18.2c7.8,0,5.8,9.6,9.6,18.2c3.7,8.7,16.5,8,28,6.9c11.5-1.1,12.2-15,12.2-15
		c0.2-3.3,1.6-5.1,2.7-5.9c1.5-1.2,2.7-2.8,3.1-4.7c0-0.2,0.1-0.3,0.1-0.5C119.9,54.9,119.7,53.7,119.3,52.6z M49.7,75
		c-2.1,4-13.6,3.4-13.6,3.4c-3.2,0-12.7-0.2-14.7-3.4c-1.8-2.8-8.4-21.7,0-23.5c14.7-2.5,20.1-1.5,28.3,0C57.9,53,51.8,71,49.7,75z
		 M106.6,75c-2,3.1-11.5,3.4-14.7,3.4c0,0-11.4,0.5-13.6-3.4c-2.1-4-8.3-22,0-23.5c8.2-1.5,13.6-2.5,28.3,0
		C115,53.3,108.4,72.2,106.6,75z"/>
</g>
<g id="Layer_3">
	<path class="st2" d="M9.1,63.6l-0.9,4.2c0,0,18.1,3.8,22.2,5.3v-4.3C14.6,63.4,9.1,63.6,9.1,63.6z"/>
	<path class="st2" d="M118.9,63.6l0.9,4.3c0,0-17.8,3.6-21.9,5.2v-4.3C113.6,63.3,118.9,63.6,118.9,63.6z"/>
	<g>
		<path class="st2" d="M116.4,52c-1.4-6.1-3-12.4-3.9-15.9c0,0-1.6-7.2-9.1-10.9c-7.7-3.9-19.1-8.8-22.8-13c0,0.1,0,0.1,0,0.2
			c0.2,3.5-1.8,11.4-11.5,13.4l-5.2-5.9l0,0l-4.5,5.7c-9.7-2.7-11.5-13.3-11.5-13.3C41.4,18.1,33.7,20.2,25,25
			c-7.7,4.2-9.2,11.3-9.2,11.3s-5.6,21.5-6.7,27.3c0,0,18.2,3.9,21.2,5.2v45.7c17.4,6.3,50.5,8,67.5,0V68.8c0,0,15.8-4.4,21-5.2
			C118.9,63.6,117.8,58.1,116.4,52z M64,30.2c-0.6,0-1.1-0.5-1.1-1.1c0-0.6,0.5-1.1,1.1-1.1c0.6,0,1.1,0.5,1.1,1.1
			C65.2,29.7,64.6,30.2,64,30.2z M90.3,52.5c0,2.2-1.8,4-4,4h-5.1c-2.2,0-4-1.8-4-4v-10h13.1V52.5z"/>
		<g>
			<path class="st2" d="M65.2,29c0,0.6-0.5,1.1-1.1,1.1c-0.6,0-1.1-0.5-1.1-1.1c0-0.6,0.5-1.1,1.1-1.1C64.6,27.9,65.2,28.4,65.2,29z
				"/>
		</g>
		<g>
			<path class="st2" d="M65.2,39.6c0,0.6-0.5,1.1-1.1,1.1c-0.6,0-1.1-0.5-1.1-1.1c0-0.6,0.5-1.1,1.1-1.1
				C64.6,38.4,65.2,38.9,65.2,39.6z"/>
		</g>
		<g>
			<path class="st2" d="M65.2,50.1c0,0.6-0.5,1.1-1.1,1.1c-0.6,0-1.1-0.5-1.1-1.1c0-0.6,0.5-1.1,1.1-1.1
				C64.6,48.9,65.2,49.4,65.2,50.1z"/>
		</g>
		<g>
			<path class="st2" d="M65.2,60.6c0,0.6-0.5,1.1-1.1,1.1c-0.6,0-1.1-0.5-1.1-1.1c0-0.6,0.5-1.1,1.1-1.1
				C64.6,59.4,65.2,59.9,65.2,60.6z"/>
		</g>
		<g>
			<path class="st2" d="M65.2,71.1c0,0.6-0.5,1.1-1.1,1.1c-0.6,0-1.1-0.5-1.1-1.1c0-0.6,0.5-1.1,1.1-1.1
				C64.6,69.9,65.2,70.4,65.2,71.1z"/>
		</g>
		<g>
			<path class="st2" d="M65.2,81.6c0,0.6-0.5,1.1-1.1,1.1c-0.6,0-1.1-0.5-1.1-1.1c0-0.6,0.5-1.1,1.1-1.1
				C64.6,80.4,65.2,80.9,65.2,81.6z"/>
		</g>
		<g>
			<path class="st2" d="M65.1,92.4c-0.1,0.4-0.4,0.7-0.8,0.8c-0.9,0.2-1.6-0.6-1.4-1.4c0.1-0.4,0.4-0.7,0.8-0.8
				C64.6,90.8,65.3,91.5,65.1,92.4z"/>
		</g>
		<g>
			<path class="st2" d="M65.1,113.9c-0.1,0.4-0.4,0.7-0.8,0.8c-0.9,0.2-1.6-0.6-1.4-1.4c0.1-0.4,0.4-0.7,0.8-0.8
				C64.6,112.3,65.3,113,65.1,113.9z"/>
		</g>
		<g>
			<path class="st2" d="M65.2,102.6c0,0.6-0.5,1.1-1.1,1.1c-0.6,0-1.1-0.5-1.1-1.1c0-0.6,0.5-1.1,1.1-1.1
				C64.6,101.4,65.2,102,65.2,102.6z"/>
		</g>
		<g>
			<path class="st2" d="M90.3,43.4v9.1c0,2.2-1.8,4-4,4h-5.1c-2.2,0-4-1.8-4-4v-9.1H90.3z"/>
			<rect x="77.3" y="42.5" class="st2" width="13.1" height="0.9"/>
		</g>
	</g>
	<path class="st2" d="M47.9,8.1c0,0-0.9,8.6,15.9,11.8c0,0-3,6.5-5,7.5l0,0l0,0c0,0-11.4-4.9-14.3-11.8
		C44.5,15.6,45.1,11.7,47.9,8.1"/>
	<path class="st2" d="M80.3,8.1c0,0,0.3,8.6-16.5,11.8c0,0,3,6.5,5,7.5l0,0l0,0c0,0,11.4-4.9,14.3-11.8
		C83.2,15.6,83.1,11.7,80.3,8.1"/>
</g>
</svg>
