<?xml version="1.0" encoding="utf-8"?>
<!-- Generator: Adobe Illustrator 26.3.1, SVG Export Plug-In . SVG Version: 6.00 Build 0)  -->
<svg version="1.1" xmlns="http://www.w3.org/2000/svg" xmlns:xlink="http://www.w3.org/1999/xlink" x="0px" y="0px"
	 viewBox="0 0 128 128" style="enable-background:new 0 0 128 128;" xml:space="preserve">
<style type="text/css">
	.st0{display:none;}
	.st1{display:inline;}
	.st2{fill:#282828;}
</style>
<g id="Layer_1" class="st0">
	<g class="st1">
		<path class="st2" d="M123.8,85.3c4.5-17.9-12-75.5-60-75.5C18.7,9.7,1.7,61.8,3.3,85.3H123.8z"/>
		<path class="st2" d="M63.8,9.7c0,0,31.7,13.9,26.8,62.9H36C36,72.6,32,26.8,63.8,9.7z"/>
		<path class="st2" d="M3.3,85.3c0,0,51-36.5,120.5,0c0,0-2.7,9.5,0,14.8c2.7,5.2-3.2,16.3-29.3,0c-13.8-8.6-42.7-8.7-56.5-1.8
			c-9.6,4.8-37.9,19.5-33.1,1C6.6,92.7,3.3,85.3,3.3,85.3z"/>
	</g>
</g>
<g id="Layer_2">
	<path class="st2" d="M119.3,52.6L119.3,52.6L119.3,52.6C119.3,52.6,119.3,52.6,119.3,52.6c-0.4-1.1-1.1-2-2-2.7h0
		c-0.7-0.6-1.6-1.1-2.6-1.4c-1.7-0.5-3.3-0.9-4.8-1.3l0,0c-18.7-4.4-32-0.9-38.6,0.9c-2.2,0.6-4.4,0.9-6.6,0.9h-1.2
		c-2.3,0-4.6-0.3-6.8-0.9c-6.6-1.8-19.9-5.2-38.5-0.9l0,0c-1.6,0.4-3.2,0.8-4.9,1.3c-1,0.3-1.8,0.8-2.6,1.4c-0.9,0.7-1.6,1.7-2,2.7
		v0h0c-0.4,1.1-0.6,2.3-0.4,3.5c0,0.2,0.1,0.3,0.1,0.5c0.4,1.9,1.6,3.5,3.1,4.7c1.1,0.9,2.5,2.6,2.7,5.9c0,0,0.7,14,12.2,15
		c11.5,1.1,24.2,1.8,28-6.9c3.7-8.7,1.8-18.2,9.6-18.2c7.8,0,5.8,9.6,9.6,18.2c3.7,8.7,16.5,8,28,6.9c11.5-1.1,12.2-15,12.2-15
		c0.2-3.3,1.6-5.1,2.7-5.9c1.5-1.2,2.7-2.8,3.1-4.7c0-0.2,0.1-0.3,0.1-0.5C119.9,54.9,119.7,53.7,119.3,52.6z M49.7,75
		c-2.1,4-13.6,3.4-13.6,3.4c-3.2,0-12.7-0.2-14.7-3.4c-1.8-2.8-8.4-21.7,0-23.5c14.7-2.5,20.1-1.5,28.3,0C57.9,53,51.8,71,49.7,75z
		 M106.6,75c-2,3.1-11.5,3.4-14.7,3.4c0,0-11.4,0.5-13.6-3.4c-2.1-4-8.3-22,0-23.5c8.2-1.5,13.6-2.5,28.3,0
		C115,53.3,108.4,72.2,106.6,75z"/>
</g>
</svg>
