<?xml version="1.0" encoding="utf-8"?>
<!-- Generator: Adobe Illustrator 26.3.1, SVG Export Plug-In . SVG Version: 6.00 Build 0)  -->
<svg version="1.1" id="Layer_1" xmlns="http://www.w3.org/2000/svg" xmlns:xlink="http://www.w3.org/1999/xlink" x="0px" y="0px"
	 viewBox="0 0 128 128" style="enable-background:new 0 0 128 128;" xml:space="preserve">
<style type="text/css">
	.st0{fill:#282828;}
</style>
<g>
	<path class="st0" d="M123.8,85.3c4.5-17.9-12-75.5-60-75.5C18.7,9.7,1.7,61.8,3.3,85.3H123.8z"/>
	<path class="st0" d="M63.8,9.7c0,0,31.7,13.9,26.8,62.9H36C36,72.6,32,26.8,63.8,9.7z"/>
	<path class="st0" d="M3.3,85.3c0,0,51-36.5,120.5,0c0,0-2.7,9.5,0,14.8c2.7,5.2-3.2,16.3-29.3,0c-13.8-8.6-42.7-8.7-56.5-1.8
		c-9.6,4.8-37.9,19.5-33.1,1C6.6,92.7,3.3,85.3,3.3,85.3z"/>
</g>
</svg>
