<svg xmlns="http://www.w3.org/2000/svg" viewBox="0 0 595.28 968.5"><defs><style>.cls-1,.cls-2{fill:#e5b69c;}.cls-1{stroke:#cb8f85;stroke-miterlimit:10;stroke-width:0.25px;}</style></defs><g id="gezicht"><path class="cls-1" d="M297.91,211.51c15.7-.27,38.11-14.74,41.74-26.55,4.09-13.25,1.52-62.3-8.42-73.28-8.24-9.1-57.65-10.41-67.92,0-12.7,12.9-12.94,72.89-5.1,80.43C266.37,200,280.69,211.82,297.91,211.51Z"/></g><g id="oren"><path class="cls-2" d="M341,150.49s9.54-4,11.85-2.17c2,1.53,2.24,15.39.71,17.94-1.71,2.84-8.3,7.85-12.24,7.47C341.27,173.73,338.38,157,341,150.49Z"/><path class="cls-2" d="M253.91,150.49s-9.54-4-11.86-2.17c-2,1.53-2.23,15.39-.7,17.94,1.7,2.84,8.3,7.85,12.23,7.47C253.58,173.73,256.48,157,253.91,150.49Z"/></g></svg>