<svg id="schoenen" xmlns="http://www.w3.org/2000/svg" viewBox="0 0 595.28 968.5"><defs><style>.cls-1{fill:#814997;}.cls-2{fill:#c6c6c6;}.cls-3{fill:#e9e7f0;}.cls-4{fill:none;stroke:#814997;stroke-miterlimit:10;stroke-width:0.67px;}</style></defs><path class="cls-1" d="M351.84,699.87s3,2.88,5.54.79h0c.59,1.41,1.51,7.76,3,15.05,3.06,14.77,11.78,32.8,10.84,47,0,0-2.49-10.84-11.36-17.33"/><path class="cls-2" d="M322.9,762.23c-4.49,19.29,10.16,23.15,24.11,23.15,12.25,0,28.3-7.07,24.1-23.18h0l-48.21,0"/><path class="cls-1" d="M326.06,700.44h0c-.59,1.41.06,4.53-.15,8.69-.34,6.87-3.09,44.79-3.09,53.54a30.1,30.1,0,0,1,10.64-17.33s-1-36.89,3.09-45.47C336.55,699.87,329.93,704.41,326.06,700.44Z"/><path class="cls-3" d="M333.46,745.34s18.53-2.06,26.42,0c0,0-6-35.52-6.69-42.21s-11-8.41-16.64-3.26l-.27.63-.27.73-.38,1.31-.3,1.29-.3,1.55-.31,2-.25,2-.18,1.64-.16,1.79-.1,1.12-.14,2-.14,2.48-.11,2.15,0,1,0,1,0,1,0,1.46,0,1.32,0,1.11,0,1.2v1l0,1.28v8.47l0,1.34v1.8l0,1.24,0,1.11Z"/><path class="cls-3" d="M322.82,762.67s-2.34,17.1,23.8,17.1,24.62-13.61,24.62-17.1l-.13-.47-.16-.61-.24-.79-.22-.72-.18-.54-.31-.86-.22-.58-.38-.93-.34-.79-.35-.75-.39-.77-.31-.59-.32-.56-.41-.7-.35-.55-.31-.48-.5-.7-.5-.68-.43-.54-.42-.49-.36-.41-.5-.54-.42-.42-.55-.52-.56-.5-.57-.46-.39-.32-.51-.37-.56-.39-.47-.3-.31-.08-.55-.12-.51-.1-.32-.06-.46-.07-.54-.08-.61-.07-.61-.07-.55-.05-.57,0-.64,0-.75,0-.6,0-.53,0-.6,0h-5l-.65,0-.68,0-.59,0-.57,0-.84,0-.71,0-.47,0-.68,0-.68.05-.65,0-.76.05-.53,0-.66,0-.62.05-.58,0-.47,0-.51.05-.51,0-.47,0-.54.05-.51,0-.55.06-.35.28-.3.25-.4.34-.41.37-.35.32-.3.29-.28.27-.33.33-.37.39-.35.38-.38.42-.29.34-.39.47-.27.33-.3.39-.34.46-.25.35-.23.32-.33.49-.26.39-.18.28-.18.31-.39.64-.28.51-.23.42-.27.51-.27.55-.12.24-.22.48-.16.37-.15.33-.2.49-.17.43-.17.46-.16.44-.17.49-.15.46-.15.5-.11.38-.11.39-.13.55-.11.48Z"/><line class="cls-4" x1="334.47" y1="709.31" x2="354.09" y2="709.31"/><line class="cls-4" x1="334.13" y1="712.62" x2="354.54" y2="712.62"/><line class="cls-4" x1="333.89" y1="715.93" x2="355.06" y2="715.93"/><line class="cls-4" x1="333.7" y1="719.24" x2="355.58" y2="719.24"/><line class="cls-4" x1="333.56" y1="722.55" x2="356.11" y2="722.55"/><line class="cls-4" x1="333.46" y1="725.86" x2="356.65" y2="725.86"/><line class="cls-4" x1="333.39" y1="729.17" x2="357.19" y2="729.17"/><line class="cls-4" x1="333.35" y1="732.48" x2="357.78" y2="732.48"/><line class="cls-4" x1="333.35" y1="735.79" x2="358.21" y2="735.79"/><line class="cls-4" x1="333.36" y1="739.1" x2="358.79" y2="739.1"/><path class="cls-1" d="M243,699.87s-3,2.88-5.54.79h0c-.59,1.41-1.51,7.76-3,15.05-3.06,14.77-11.78,32.8-10.84,47,0,0,2.49-10.84,11.36-17.33"/><path class="cls-2" d="M272,762.23c4.49,19.29-10.16,23.15-24.11,23.15-12.24,0-28.3-7.07-24.1-23.18h0l48.21,0"/><path class="cls-1" d="M268.82,700.44h0c.59,1.41-.06,4.53.15,8.69.34,6.87,3.09,44.79,3.09,53.54a30.1,30.1,0,0,0-10.64-17.33s1-36.89-3.09-45.47C258.33,699.87,265,704.41,268.82,700.44Z"/><path class="cls-3" d="M261.42,745.34s-18.53-2.06-26.42,0c0,0,6-35.52,6.69-42.21s11-8.41,16.64-3.26l.27.63.27.73.38,1.31.3,1.29.3,1.55.31,2,.25,2,.18,1.64.16,1.79.1,1.12.14,2,.14,2.48.11,2.15,0,1,0,1,0,1,0,1.46,0,1.32,0,1.11,0,1.2v1l0,1.28v9.81l0,.92v.88l0,1.24,0,1.11Z"/><path class="cls-3" d="M272.06,762.67s2.34,17.1-23.79,17.1-24.63-13.61-24.63-17.1l.13-.47.16-.61.24-.79.22-.72.18-.54.31-.86.22-.58.38-.93.34-.79.35-.75.39-.77.31-.59.32-.56.41-.7.35-.55.31-.48.5-.7.5-.68.43-.54.42-.49.37-.41.49-.54.42-.42.55-.52.56-.5.57-.46.39-.32L234,746l.56-.39.47-.3.31-.08.56-.12.5-.1.33-.06.45-.07.54-.08.61-.07.61-.07.55-.05.57,0,.64,0,.75,0,.6,0,.53,0,.6,0h5l.65,0,.68,0,.59,0,.57,0,.84,0,.71,0,.47,0,.68,0,.68.05.65,0,.76.05.53,0,.66,0,.62.05.58,0,.47,0,.51.05.51,0,.47,0,.54.05.51,0,.55.06.35.28.3.25.4.34.41.37.35.32.3.29.28.27.33.33.37.39.35.38.38.42.29.34.39.47.27.33.3.39.34.46.25.35.23.32.33.49.26.39.18.28.18.31.39.64.28.51.23.42.27.51.27.55.12.24.22.48.17.37.14.33.2.49.17.43.17.46.16.44.17.49.15.46.15.5.11.38.11.39.13.55.11.48Z"/><line class="cls-4" x1="260.41" y1="709.31" x2="240.79" y2="709.31"/><line class="cls-4" x1="260.75" y1="712.62" x2="240.34" y2="712.62"/><line class="cls-4" x1="260.99" y1="715.93" x2="239.82" y2="715.93"/><line class="cls-4" x1="261.18" y1="719.24" x2="239.3" y2="719.24"/><line class="cls-4" x1="261.32" y1="722.55" x2="238.77" y2="722.55"/><line class="cls-4" x1="261.42" y1="725.86" x2="238.23" y2="725.86"/><line class="cls-4" x1="261.49" y1="729.17" x2="237.69" y2="729.17"/><line class="cls-4" x1="261.53" y1="732.48" x2="237.1" y2="732.48"/><line class="cls-4" x1="261.53" y1="735.79" x2="236.67" y2="735.79"/><line class="cls-4" x1="261.52" y1="739.1" x2="236.09" y2="739.1"/></svg>