<svg id="Layer_1" data-name="Layer 1" xmlns="http://www.w3.org/2000/svg" xmlns:xlink="http://www.w3.org/1999/xlink" viewBox="0 0 100 100"><defs><style>.cls-1,.cls-3{fill:none;}.cls-2{fill:#ff0606;}.cls-3{stroke:#9e0000;stroke-width:3.84px;}.cls-4{clip-path:url(#clip-path);}.cls-5{fill:#fff;}</style><clipPath id="clip-path"><rect class="cls-1" x="22.13" y="23.69" width="63.41" height="52.74"/></clipPath></defs><g id="Rectangle_106" data-name="Rectangle 106"><rect class="cls-2" x="5.87" y="5.93" width="88.26" height="88.26" rx="24.94"/><rect class="cls-3" x="7.79" y="7.85" width="84.42" height="84.42" rx="23.02"/></g><g id="Group_24" data-name="Group 24"><g class="cls-4"><g id="Group_23" data-name="Group 23"><path id="Path_10" data-name="Path 10" class="cls-5" d="M22.35,30.45V72.94a3.27,3.27,0,0,0,3.25,3.27H58.3A3.26,3.26,0,0,0,61.56,73h0V59.86a3.27,3.27,0,0,0-6.54,0v3.26h0v6.54H28.89V56.59h0V43.52h0V30.45H55V37h0v3.26a3.27,3.27,0,1,0,6.54,0V27.18a3.28,3.28,0,0,0-3.25-3.28H25.63a3.27,3.27,0,0,0-3.28,3.25v3.28"/><rect id="Rectangle_213" data-name="Rectangle 213" class="cls-5" x="28.89" y="43.52" height="6.54"/><rect id="Rectangle_214" data-name="Rectangle 214" class="cls-5" x="28.89" y="50.05" height="6.54"/><path id="Path_11" data-name="Path 11" class="cls-5" d="M38.61,53.32h0Z"/><path id="Path_12" data-name="Path 12" class="cls-5" d="M39,46.8h-.67A3.75,3.75,0,0,1,39,46.8Z"/><path id="Path_13" data-name="Path 13" class="cls-5" d="M85.23,50.06,82,53.32,75,60.26a3.27,3.27,0,0,1-4.63-4.63l2.32-2.31H38.61a3.26,3.26,0,0,1-.26-6.52H72.72l-2.34-2.34a3.28,3.28,0,0,1,0-4.62h0a3.27,3.27,0,0,1,4.62,0h0Z"/></g></g></g></svg>