<?xml version="1.0" encoding="utf-8"?>
<!-- Generator: Adobe Illustrator 26.3.1, SVG Export Plug-In . SVG Version: 6.00 Build 0)  -->
<svg version="1.1" id="Layer_1" xmlns="http://www.w3.org/2000/svg" xmlns:xlink="http://www.w3.org/1999/xlink" x="0px" y="0px"
	 viewBox="0 0 100 100" style="enable-background:new 0 0 100 100;" xml:space="preserve">
<style type="text/css">
	.st0{fill:#FFFFFF;}
</style>
<path class="st0" d="M11.9,18.3l69.8,69.8c1.8,1.8,4.6,1.8,6.3,0l0,0c1.8-1.8,1.8-4.6,0-6.3L18.3,11.9c-1.8-1.8-4.6-1.8-6.3,0l0,0
	C10.2,13.7,10.2,16.5,11.9,18.3z"/>
<path class="st0" d="M81.7,11.9L11.9,81.7c-1.8,1.8-1.8,4.6,0,6.3l0,0c1.8,1.8,4.6,1.8,6.3,0l69.8-69.8c1.8-1.8,1.8-4.6,0-6.3l0,0
	C86.3,10.2,83.5,10.2,81.7,11.9z"/>
</svg>
