<svg id="Layer_3" data-name="Layer 3" xmlns="http://www.w3.org/2000/svg" xmlns:xlink="http://www.w3.org/1999/xlink" viewBox="0 0 100 100"><defs><style>.cls-1{fill:none;}.cls-2{clip-path:url(#clip-path);}.cls-3{fill:#fff;}</style><clipPath id="clip-path"><rect class="cls-1" x="30.62" y="26.21" width="41.85" height="47.69"/></clipPath></defs><g class="cls-2"><g id="Group_9" data-name="Group 9"><path id="Path_4" data-name="Path 4" class="cls-3" d="M71.64,64.78h0a2.82,2.82,0,0,1,0,4,2,2,0,0,1-.27.24,23.85,23.85,0,0,1-37.78-14H32.37a1.76,1.76,0,0,1-.1-3.51h.85c0-.49,0-1,0-1.49s0-1,0-1.5h-.75a1.76,1.76,0,0,1,0-3.51H33.6A23.85,23.85,0,0,1,71.38,31.1a2.83,2.83,0,0,1-3.44,4.49A18.2,18.2,0,0,0,42.44,39a18.53,18.53,0,0,0-3,6h8.76a1.76,1.76,0,0,1,0,3.51H38.79q-.06.73-.06,1.5c0,.5,0,1,.06,1.49h9.39a1.76,1.76,0,0,1,0,3.51H39.42a18.2,18.2,0,0,0,28.52,9.46,2.81,2.81,0,0,1,3.7.26"/></g></g></svg>