<svg id="Layer_2" data-name="Layer 2" xmlns="http://www.w3.org/2000/svg" xmlns:xlink="http://www.w3.org/1999/xlink" viewBox="0 0 100 100"><defs><style>.cls-1{fill:none;}.cls-2{clip-path:url(#clip-path);}.cls-3{fill:#fff;}</style><clipPath id="clip-path"><rect class="cls-1" x="13.03" y="26.42" width="73.93" height="47.28"/></clipPath></defs><g id="Group_8" data-name="Group 8"><g class="cls-2"><g id="Group_7" data-name="Group 7"><path id="Path_3" data-name="Path 3" class="cls-3" d="M58.89,34.71c0,.14,0,.29,0,.44a2.06,2.06,0,0,0,1.88,2.22,1.71,1.71,0,0,0,.32,0,2.24,2.24,0,0,0,2.25-1.88c0-.11,0-.22,0-.34s0-.22,0-.33a15.44,15.44,0,0,0-.52-3.71,6.82,6.82,0,0,0-7-4.69A7.73,7.73,0,0,0,50,28.91a6.88,6.88,0,0,0-1.66,2.2,8.94,8.94,0,0,0-.64,2.54v8l-3.59,2.43-1.21.8h0l0,0-5.89,4h0l-5.45,3.67-13,8.74h0l-2.23,1.5-1,.66a4.79,4.79,0,0,0,0,8.12l1,.64a11.85,11.85,0,0,0,5.49,1.5H78.27c4.85-.19,8.7-2.9,8.7-6.21a5.31,5.31,0,0,0-2.4-4.17l0,0L84,62.9h0l-2.41-1.62-13-8.77-5.4-3.63-6.87-4.62-3.75-2.52-.06-8.22s.12-2.39,3.32-2.15c2.85,0,3.17,3.34,3.17,3.34M25,61.28l6.5-4.37,8.7-5.84.86-.59,5.5-3.7a5.87,5.87,0,0,1,2.85-.9h.86a5.67,5.67,0,0,1,2.85.9l5.72,3.84.81.54,15,10.1h0l.39.26,5.57,3.76,0,0a2.45,2.45,0,0,1,1.09,3.29,2.42,2.42,0,0,1-1.09,1.1,5.9,5.9,0,0,1-3.27.91c-.21,0-.41,0-.62,0H22.94A6.1,6.1,0,0,1,19,69.71a2.69,2.69,0,0,1-1.36-2.2,1.09,1.09,0,0,1,0-.18c0-.06,0-.11,0-.16l0-.15,0-.1.05-.14A3,3,0,0,1,19,65.3a2.77,2.77,0,0,1,.37-.22L24.7,61.5Z"/></g></g></g></svg>