<?xml version="1.0" encoding="utf-8"?>
<!-- Generator: Adobe Illustrator 26.3.1, SVG Export Plug-In . SVG Version: 6.00 Build 0)  -->
<svg version="1.1" id="Layer_1" xmlns="http://www.w3.org/2000/svg" xmlns:xlink="http://www.w3.org/1999/xlink" x="0px" y="0px"
	 viewBox="0 0 500 500" style="enable-background:new 0 0 500 500;" xml:space="preserve">
<style type="text/css">
	.st0{fill:#29235C;}
	.st1{fill:#91A84E;}
	.st2{fill:#1D0F16;}
</style>
<path class="st0" d="M28.8,245l-3.7,17c0,0,72.6,15.3,89,21.5V266C50.8,244.2,28.8,245,28.8,245z"/>
<path class="st0" d="M469.4,245l3.5,17.2c0,0-71.6,14.6-88,20.7v-17.2C448.2,243.9,469.4,245,469.4,245z"/>
<g>
	<path class="st1" d="M459.2,198.4c-5.6-24.7-12.1-49.7-15.7-63.7c0,0-6.6-28.7-36.6-43.9c-31-15.7-76.8-35.2-91.7-52.3
		c0,0.2,0,0.4,0,0.7c0.9,14.1-7.3,45.9-46.1,53.9l-20.8-23.6l0,0l-18.1,23c-38.8-10.9-46.2-53.3-46.2-53.3
		C158.2,62.2,127.3,70.7,92.4,90c-30.8,16.9-36.8,45.3-36.8,45.3S33.2,221.7,28.8,245c0,0,73.1,15.5,85.3,21.1v183.3
		c69.8,25.5,202.6,32.1,270.9,0V265.7c0,0,63.2-17.7,84.5-20.7C469.4,245,464.9,223.1,459.2,198.4z M249.1,110.8
		c-2.5,0-4.5-2-4.5-4.5c0-2.5,2-4.5,4.5-4.5c2.5,0,4.5,2,4.5,4.5C253.6,108.7,251.6,110.8,249.1,110.8z M354.7,200.5
		c0,8.8-7.1,15.9-15.9,15.9h-20.7c-8.8,0-15.9-7.1-15.9-15.9v-40.3h52.4V200.5z"/>
	<g>
		<path class="st0" d="M253.6,106.3c0,2.5-2,4.5-4.5,4.5c-2.5,0-4.5-2-4.5-4.5c0-2.5,2-4.5,4.5-4.5
			C251.6,101.7,253.6,103.8,253.6,106.3z"/>
	</g>
	<g>
		<path class="st0" d="M253.6,148.4c0,2.5-2,4.5-4.5,4.5c-2.5,0-4.5-2-4.5-4.5c0-2.5,2-4.5,4.5-4.5
			C251.6,143.9,253.6,145.9,253.6,148.4z"/>
	</g>
	<g>
		<path class="st0" d="M253.6,190.6c0,2.5-2,4.5-4.5,4.5c-2.5,0-4.5-2-4.5-4.5c0-2.5,2-4.5,4.5-4.5
			C251.6,186.1,253.6,188.1,253.6,190.6z"/>
	</g>
	<g>
		<path class="st0" d="M253.6,232.8c0,2.5-2,4.5-4.5,4.5c-2.5,0-4.5-2-4.5-4.5c0-2.5,2-4.5,4.5-4.5
			C251.6,228.2,253.6,230.3,253.6,232.8z"/>
	</g>
	<g>
		<path class="st0" d="M253.6,275c0,2.5-2,4.5-4.5,4.5c-2.5,0-4.5-2-4.5-4.5c0-2.5,2-4.5,4.5-4.5C251.6,270.4,253.6,272.5,253.6,275
			z"/>
	</g>
	<g>
		<path class="st0" d="M253.6,317.1c0,2.5-2,4.5-4.5,4.5c-2.5,0-4.5-2-4.5-4.5c0-2.5,2-4.5,4.5-4.5
			C251.6,312.6,253.6,314.6,253.6,317.1z"/>
	</g>
	<g>
		<path class="st0" d="M253.5,360.4c-0.4,1.6-1.7,2.9-3.3,3.2c-3.4,0.8-6.4-2.3-5.5-5.7c0.4-1.6,1.7-2.8,3.3-3.2
			C251.4,354.1,254.3,357.1,253.5,360.4z"/>
	</g>
	<g>
		<path class="st0" d="M253.5,446.8c-0.4,1.6-1.7,2.9-3.3,3.2c-3.4,0.8-6.4-2.3-5.5-5.7c0.4-1.6,1.7-2.8,3.3-3.2
			C251.4,440.5,254.3,443.5,253.5,446.8z"/>
	</g>
	<g>
		<path class="st0" d="M253.6,401.5c0,2.5-2,4.5-4.5,4.5c-2.5,0-4.5-2-4.5-4.5c0-2.5,2-4.5,4.5-4.5
			C251.6,396.9,253.6,399,253.6,401.5z"/>
	</g>
	<g>
		<path class="st0" d="M354.7,163.9v36.6c0,8.8-7.1,15.9-15.9,15.9h-20.7c-8.8,0-15.9-7.1-15.9-15.9v-36.6H354.7z"/>
		<rect x="302.3" y="160.2" class="st2" width="52.4" height="3.7"/>
	</g>
</g>
<path class="st0" d="M184.4,22.2c0,0-3.8,34.5,63.9,47.2c0,0-12.1,26.1-20.2,30.3l0,0l0,0c0,0-45.8-19.7-57.5-47.5
	C170.7,52.2,173.2,36.6,184.4,22.2"/>
<path class="st0" d="M314.6,22.2c0,0,1.4,34.5-66.3,47.2c0,0,12.1,26.1,20.2,30.3l0,0l0,0c0,0,45.8-19.7,57.5-47.5
	C326,52.2,325.9,36.6,314.6,22.2"/>
</svg>
