<?xml version="1.0" encoding="utf-8"?>
<!-- Generator: Adobe Illustrator 26.3.1, SVG Export Plug-In . SVG Version: 6.00 Build 0)  -->
<svg version="1.1" id="Layer_1" xmlns="http://www.w3.org/2000/svg" xmlns:xlink="http://www.w3.org/1999/xlink" x="0px" y="0px"
	 viewBox="0 0 500 500" style="enable-background:new 0 0 500 500;" xml:space="preserve">
<style type="text/css">
	.st0{fill:#662482;}
	.st1{fill:url(#SVGID_1_);}
	.st2{fill:url(#SVGID_00000127761661796713737640000017463756153546726297_);}
</style>
<g>
	<g>
		<path class="st0" d="M34.4,192.6c-3.5,3-6.3,6.8-8,11v0h0c-1.8,4.4-2.4,9.3-1.6,14.3c0.1,0.6,0.3,1.3,0.4,2
			c1.8,7.5,6.5,13.9,12.6,18.7c4.4,3.6,10.2,10.7,11,23.9c0,0,2.8,56.3,49.2,60.6s97.6,7.1,112.6-27.8c15-34.9,7.1-73.4,38.5-73.4
			c31.3,0,23.5,38.5,38.5,73.4c15,34.9,66.3,32.1,112.6,27.8c46.3-4.3,49.2-60.6,49.2-60.6c0.9-13.3,6.6-20.3,11-23.9
			c6.1-4.8,10.8-11.2,12.6-18.7c0.2-0.7,0.3-1.3,0.4-2c0.8-5,0.2-9.9-1.6-14.3h0v0c0,0,0,0,0,0c-1.7-4.2-4.4-8-8-10.9h0
			c-3-2.5-6.5-4.5-10.4-5.6c-6.7-2-13.1-3.7-19.5-5.1l-0.1,0c-75.2-17.6-128.9-3.5-155.4,3.7c-8.7,2.4-17.6,3.5-26.6,3.5h-4.9
			c-9.3,0-18.5-1.2-27.5-3.7c-26.6-7.3-80.1-21.1-154.9-3.6l0,0c-6.4,1.5-12.9,3.2-19.6,5.1C40.9,188.2,37.4,190.1,34.4,192.6"/>
	</g>
	<linearGradient id="SVGID_1_" gradientUnits="userSpaceOnUse" x1="289.8423" y1="250.2282" x2="437.3689" y2="250.2282">
		<stop  offset="0" style="stop-color:#2580C3"/>
		<stop  offset="1" style="stop-color:#D8EEFC"/>
	</linearGradient>
	<path class="st1" d="M361.3,307.4c0,0-46,2.1-54.6-13.8c-8.6-15.9-33.3-88.6,0-94.5c33-5.9,54.6-10.2,113.8,0
		c34,7.4,7.4,83.4,0,94.8C412.4,306.5,374.3,307.5,361.3,307.4z"/>
	
		<linearGradient id="SVGID_00000071537419799064852530000016719021287053931171_" gradientUnits="userSpaceOnUse" x1="60.6192" y1="250.2282" x2="208.1458" y2="250.2282">
		<stop  offset="0" style="stop-color:#2580C3"/>
		<stop  offset="1" style="stop-color:#D8EEFC"/>
	</linearGradient>
	<path style="fill:url(#SVGID_00000071537419799064852530000016719021287053931171_);" d="M136.7,307.4c0,0,46,2.1,54.6-13.8
		c8.6-15.9,33.3-88.6,0-94.5c-33-5.9-54.6-10.2-113.8,0c-34,7.4-7.4,83.4,0,94.8C85.6,306.5,123.7,307.5,136.7,307.4z"/>
</g>
</svg>
