<?xml version="1.0" encoding="utf-8"?>
<!-- Generator: Adobe Illustrator 26.3.1, SVG Export Plug-In . SVG Version: 6.00 Build 0)  -->
<svg version="1.1" id="Layer_1" xmlns="http://www.w3.org/2000/svg" xmlns:xlink="http://www.w3.org/1999/xlink" x="0px" y="0px"
	 viewBox="0 0 500 500" style="enable-background:new 0 0 500 500;" xml:space="preserve">
<style type="text/css">
	.st0{fill:#9B7859;}
	.st1{fill:#BE9373;}
	.st2{fill:#ECDC50;}
</style>
<g>
	<path class="st0" d="M455.7,231.6c0,0,29.5-9.2,19.4,24.1c-10.1,33.4-48.5,69.9-73,89.3c0,0-31.5-55.4-57.2-66
		C344.9,279.1,416.9,253.9,455.7,231.6z"/>
	<path class="st0" d="M46.1,257.5c0,0-36.6-13.2-18,33.3S99,368.1,99,368.1s6.7-60.8,47-81.7C146,286.3,69.1,260.4,46.1,257.5z"/>
	<path class="st1" d="M46.1,257.5c0,0,127.2,92.7,203.3,92.7s139.4-63.2,206.2-118.6c0,0-48.9,25.9-79,40.2c0,0-18-47.4-20.1-86.2
		c-2.2-38.8-30.9-68.3-63.9-30.9s-59.6,3.6-62.5,0.7s-61.3-36.7-75.4,26.6c-12.8,57.4-29.4,82.9-37.3,95.8
		C117.4,277.8,68.4,262.5,46.1,257.5z"/>
	<path class="st0" d="M131.5,252.5c0,0,142.5-10.9,238.3-0.8l6.8,20.2c0,0-129.9,31.9-259.3,6L131.5,252.5z"/>
	<polygon class="st2" points="250.9,252.5 256.4,263.6 268.7,265.4 259.8,274.1 261.9,286.3 250.9,280.6 239.9,286.3 242,274.1 
		233.1,265.4 245.4,263.6 	"/>
</g>
</svg>
