<?xml version="1.0" encoding="utf-8"?>
<!-- Generator: Adobe Illustrator 26.3.1, SVG Export Plug-In . SVG Version: 6.00 Build 0)  -->
<svg version="1.1" id="Layer_1" xmlns="http://www.w3.org/2000/svg" xmlns:xlink="http://www.w3.org/1999/xlink" x="0px" y="0px"
	 viewBox="0 0 500 500" style="enable-background:new 0 0 500 500;" xml:space="preserve">
<style type="text/css">
	.st0{fill:#FFD700;}
	.st1{fill:#FFE689;}
</style>
<g>
	<path class="st0" d="M263.8,64.9c-12.6,86-76.2,120.9-76.2,120.9c19.8,16.7,39.8,45.7,46.7,68.3c11.4,37.6-18.2,60-37.3,48.9
		c-20.8-12.1-9.5-32.8,2.8-38.6C165.2,213,63.2,182.9,63.2,182.9c70,51.3,67.6,134.3,67.6,134.3c-48.1-95-108.3-92.5-108.3-92.5
		c61.5,30.3,75.5,132.1,75.5,132.1s148.6,108.1,310.6,4.1c0,0,13.2-105.9,67.1-136.2c0,0-52.9-2.5-95,92.5c0,0-2.1-83,59.3-134.3
		c0,0-89.5,30.1-120,81.4c10.9,5.9,20.8,26.6,2.5,38.6c-16.7,11.1-42.7-11.3-32.7-48.9c6-22.5,23.6-51.5,41-68.3
		C330.6,185.9,274.8,150.9,263.8,64.9"/>
	<circle class="st1" cx="130.2" cy="338.5" r="10.9"/>
	<circle class="st1" cx="382.6" cy="338.5" r="10.9"/>
	<circle class="st1" cx="193.1" cy="343" r="13.5"/>
	<circle class="st1" cx="266.6" cy="338.5" r="19.4"/>
	<circle class="st1" cx="334.7" cy="343" r="13.5"/>
	<ellipse class="st1" cx="262.2" cy="178.5" rx="23.1" ry="30.2"/>
	<path class="st1" d="M97.9,356.9c0,0-18.8,4.6-3.2,24.1c16.3,20.6,214.6,71.8,317.3,4.1c0,0,14.2-11.6-3.4-24.1
		C408.5,360.9,286.5,427.7,97.9,356.9z"/>
</g>
</svg>
