<?xml version="1.0" encoding="utf-8"?>
<!-- Generator: Adobe Illustrator 26.3.1, SVG Export Plug-In . SVG Version: 6.00 Build 0)  -->
<svg version="1.1" id="Layer_1" xmlns="http://www.w3.org/2000/svg" xmlns:xlink="http://www.w3.org/1999/xlink" x="0px" y="0px"
	 viewBox="0 0 500 500" style="enable-background:new 0 0 500 500;" xml:space="preserve">
<style type="text/css">
	.st0{fill:#CFCDDD;}
	.st1{fill:#B4B0C8;}
	.st2{fill:#4B507F;}
</style>
<g>
	<path class="st0" d="M471.4,341.5C488.2,275,426.9,60.8,248.6,60.8c-167.5,0-230.8,193.5-225,280.6H471.4z"/>
	<path class="st1" d="M248.6,60.8c0,0,117.9,51.6,99.7,233.5H145.4C145.4,294.4,130.4,124.1,248.6,60.8z"/>
	<path class="st2" d="M23.7,341.5c0,0,189.7-135.5,447.7,0c0,0-10,35.5,0,54.8c10,19.4-11.9,60.5-109,0
		c-51.3-31.9-158.7-32.4-210-6.8c-35.6,17.8-140.9,72.5-122.9,3.9C35.9,368.9,23.7,341.5,23.7,341.5z"/>
</g>
</svg>
