<?xml version="1.0" encoding="utf-8"?>
<!-- Generator: Adobe Illustrator 26.3.1, SVG Export Plug-In . SVG Version: 6.00 Build 0)  -->
<svg version="1.1" id="Layer_1" xmlns="http://www.w3.org/2000/svg" xmlns:xlink="http://www.w3.org/1999/xlink" x="0px" y="0px"
	 viewBox="0 0 500 500" style="enable-background:new 0 0 500 500;" xml:space="preserve">
<style type="text/css">
	.st0{fill:#B5B38F;}
</style>
<path class="st0" d="M341.9,80.7c0,0-1.2,47.3-1.4,59.4c-0.2,12.1-2.8,102.5-3.6,108.2c0,0,3.3,3.6,0.7,11.7c0,0,1.4,4-0.2,8.8
	c0,0,4.3,36.9,2.1,74.4c-2.1,37.6,0,90.8-0.2,98.4c-0.2,7.6,3.1,4.5-0.5,12.6c0,0,6.9,10.2-12.8,13.6c-19.7,3.3-36.6-0.5-36.6-5.7
	c0-5.2-1.7-10-1.7-11.2c0-1.2,1.4-3.8-0.7-4.5c-2.1-0.7,0.2-5,0.7-5.9c0.5-0.9-6.7-110.1-8.3-126.7c-1.7-16.6-3.3-34.5-3.6-40.7
	c0,0,2.9-3.3,0.7-7.4c-2.1-4,0-5.5,0.9-7.4c0,0-3.1-3.5-4-20.3c-0.9-16.8-16.2-80.3-24.5-90.3c-8.3,10-23.5,73.5-24.5,90.3
	c-0.9,16.8-4,20.3-4,20.3c0.9,1.9,3.1,3.3,0.9,7.4c-2.1,4,0.7,7.4,0.7,7.4c-0.2,6.2-1.9,24-3.6,40.7c-1.7,16.6-8.8,125.8-8.3,126.7
	c0.5,0.9,2.8,5.2,0.7,5.9c-2.1,0.7-0.7,3.3-0.7,4.5c0,1.2-1.7,5.9-1.7,11.2c0,5.2-16.9,9-36.6,5.7c-19.7-3.3-12.8-13.6-12.8-13.6
	c-3.6-8.1-0.2-5-0.5-12.6c-0.2-7.6,1.9-60.9-0.2-98.4c-2.1-37.6,2.1-74.4,2.1-74.4c-1.7-4.7-0.2-8.8-0.2-8.8
	c-2.6-8.1,0.7-11.7,0.7-11.7c-0.7-5.7-3.3-96-3.6-108.2c-0.2-12.1-1.4-59.4-1.4-59.4c-1.2-13.6,1.1-16.9,1.1-16.9
	c2.1-8.8,0.1-11.6,0.1-11.6c-0.6-10.1,3.2-24.7,3.2-24.7C188.1,41,249,38.6,249,38.6s60.9,2.4,88.6-11.1c0,0,3.8,14.6,3.2,24.7
	c0,0-2,2.8,0.1,11.6C340.8,63.9,343.1,67.2,341.9,80.7z"/>
</svg>
