<?xml version="1.0" encoding="utf-8"?>
<!-- Generator: Adobe Illustrator 26.3.1, SVG Export Plug-In . SVG Version: 6.00 Build 0)  -->
<svg version="1.1" id="Layer_1" xmlns="http://www.w3.org/2000/svg" xmlns:xlink="http://www.w3.org/1999/xlink" x="0px" y="0px"
	 viewBox="0 0 500 500" style="enable-background:new 0 0 500 500;" xml:space="preserve">
<style type="text/css">
	.st0{fill:#804996;}
	.st1{fill:#C6C6C5;}
	.st2{fill:#E8E8F0;}
	.st3{fill:none;stroke:#804996;stroke-width:2.0186;stroke-miterlimit:10;}
</style>
<g>
	<g>
		<path class="st0" d="M412.4,126.2c0,0,9,8.6,16.6,2.4l0,0c1.8,4.2,4.5,23.3,9.1,45.2c9.2,44.3,35.4,98.5,32.5,141
			c0,0-7.5-32.6-34.1-52.1"/>
		<path class="st1" d="M325.5,313.5C312,371.4,356,383,397.9,383c36.8,0,85-21.2,72.4-69.6s0,0,0,0L325.5,313.5"/>
		<path class="st0" d="M335,127.9L335,127.9c-1.8,4.2,0.2,13.6-0.5,26.1c-1,20.6-9.3,134.5-9.3,160.8c0,0,4.6-30.4,32-52.1
			c0,0-3.1-110.8,9.3-136.6C366.5,126.2,346.6,139.8,335,127.9z"/>
		<path class="st2" d="M357.2,262.7c0,0,55.7-6.2,79.4,0c0,0-18-106.7-20.1-126.8c-2.1-20.1-33-25.3-50-9.8l-0.8,1.9l-0.8,2.2
			l-1.1,3.9l-0.9,3.9l-0.9,4.7l-0.9,5.9l-0.8,5.9l-0.5,4.9l-0.5,5.4l-0.3,3.4l-0.4,5.9l-0.4,7.4l-0.3,6.5l-0.1,3l-0.1,2.9l-0.1,3.1
			l-0.1,4.4l-0.1,4l-0.1,3.3l-0.1,3.6l0,2.9l0,3.9l0,3.7l0,3.5l0,3.4l0,2.7l0,3.4l0,2.6l0,2.9l0,3.2l0,4l0,2.7l0,2.7l0.1,3.7
			l0.1,3.3L357.2,262.7z"/>
		<path class="st2" d="M325.2,314.8c0,0-7,51.4,71.5,51.4s74-40.9,74-51.4l-0.4-1.4l-0.5-1.8l-0.7-2.4l-0.7-2.2l-0.5-1.6l-0.9-2.6
			l-0.7-1.7l-1.1-2.8l-1-2.4l-1.1-2.3l-1.2-2.3l-0.9-1.8l-0.9-1.7l-1.3-2.1l-1-1.7l-0.9-1.4l-1.5-2.1l-1.5-2l-1.3-1.6l-1.3-1.5
			l-1.1-1.2l-1.5-1.6l-1.3-1.3l-1.7-1.6l-1.7-1.5l-1.7-1.4l-1.2-0.9l-1.5-1.1l-1.7-1.2l-1.4-0.9l-0.9-0.2l-1.7-0.4l-1.5-0.3l-1-0.2
			l-1.4-0.2l-1.6-0.2l-1.8-0.2l-1.8-0.2l-1.6-0.2l-1.7-0.1l-1.9-0.1l-2.2-0.1l-1.8-0.1l-1.6-0.1l-1.8-0.1l-1.9,0l-1.7,0l-2.1,0h-2.1
			l-1.9,0l-2,0l-1.7,0l-1.8,0l-1.9,0.1l-2.1,0.1l-1.8,0.1l-1.7,0.1l-2.5,0.1l-2.1,0.1l-1.4,0.1l-2.1,0.1l-2,0.1l-2,0.1l-2.3,0.2
			l-1.6,0.1l-2,0.1l-1.9,0.1l-1.8,0.1l-1.4,0.1l-1.5,0.1l-1.5,0.1l-1.4,0.1l-1.6,0.2l-1.5,0.2l-1.6,0.2l-1,0.8l-0.9,0.7l-1.2,1
			l-1.2,1.1l-1,1l-0.9,0.9l-0.8,0.8l-1,1l-1.1,1.2l-1,1.1l-1.1,1.3l-0.9,1l-1.2,1.4l-0.8,1l-0.9,1.2l-1,1.4l-0.8,1l-0.7,1l-1,1.5
			l-0.8,1.2l-0.5,0.8l-0.6,0.9l-1.2,1.9l-0.9,1.5l-0.7,1.2l-0.8,1.5l-0.8,1.7l-0.3,0.7l-0.7,1.4l-0.5,1.1l-0.4,1l-0.6,1.5l-0.5,1.3
			l-0.5,1.4l-0.5,1.3l-0.5,1.5l-0.4,1.4l-0.5,1.5l-0.3,1.1l-0.3,1.2l-0.4,1.6l-0.3,1.5L325.2,314.8z"/>
		<g>
			<line class="st3" x1="360.2" y1="154.5" x2="419.2" y2="154.5"/>
			<line class="st3" x1="359.2" y1="164.5" x2="420.5" y2="164.5"/>
			<line class="st3" x1="358.5" y1="174.4" x2="422.1" y2="174.4"/>
			<line class="st3" x1="357.9" y1="184.4" x2="423.6" y2="184.4"/>
			<line class="st3" x1="357.5" y1="194.3" x2="425.2" y2="194.3"/>
			<line class="st3" x1="357.2" y1="204.2" x2="426.9" y2="204.2"/>
			<line class="st3" x1="357" y1="214.2" x2="428.5" y2="214.2"/>
			<line class="st3" x1="356.8" y1="224.1" x2="430.2" y2="224.1"/>
			<line class="st3" x1="356.8" y1="234.1" x2="431.5" y2="234.1"/>
			<line class="st3" x1="356.9" y1="244" x2="433.3" y2="244"/>
		</g>
	</g>
	<g>
		<path class="st0" d="M85.6,126.2c0,0-9,8.6-16.6,2.4l0,0c-1.8,4.2-4.5,23.3-9.1,45.2c-9.2,44.3-35.4,98.5-32.5,141
			c0,0,7.5-32.6,34.1-52.1"/>
		<path class="st1" d="M172.5,313.5C186,371.4,142,383,100.1,383c-36.8,0-85-21.2-72.4-69.6s0,0,0,0L172.5,313.5"/>
		<path class="st0" d="M163,127.9L163,127.9c1.8,4.2-0.2,13.6,0.5,26.1c1,20.6,9.3,134.5,9.3,160.8c0,0-4.6-30.4-32-52.1
			c0,0,3.1-110.8-9.3-136.6C131.5,126.2,151.4,139.8,163,127.9z"/>
		<path class="st2" d="M140.8,262.7c0,0-55.7-6.2-79.4,0c0,0,18-106.7,20.1-126.8c2.1-20.1,33-25.3,50-9.8l0.8,1.9l0.8,2.2l1.1,3.9
			l0.9,3.9l0.9,4.7l0.9,5.9l0.8,5.9l0.5,4.9l0.5,5.4l0.3,3.4l0.4,5.9l0.4,7.4l0.3,6.5l0.1,3l0.1,2.9l0.1,3.1l0.1,4.4l0.1,4l0.1,3.3
			l0.1,3.6l0,2.9l0,3.9l0,3.7l0,3.5l0,3.4l0,2.7l0,3.4l0,2.6l0,2.9l0,3.2l0,4l0,2.7l0,2.7l-0.1,3.7l-0.1,3.3L140.8,262.7z"/>
		<path class="st2" d="M172.8,314.8c0,0,7,51.4-71.5,51.4s-74-40.9-74-51.4l0.4-1.4l0.5-1.8l0.7-2.4l0.7-2.2l0.5-1.6l0.9-2.6
			l0.7-1.7l1.1-2.8l1-2.4l1.1-2.3l1.2-2.3l0.9-1.8l0.9-1.7l1.3-2.1l1-1.7l0.9-1.4l1.5-2.1l1.5-2l1.3-1.6l1.3-1.5l1.1-1.2l1.5-1.6
			l1.3-1.3l1.7-1.6l1.7-1.5l1.7-1.4l1.2-0.9l1.5-1.1l1.7-1.2l1.4-0.9l0.9-0.2l1.7-0.4l1.5-0.3l1-0.2l1.4-0.2l1.6-0.2l1.8-0.2
			l1.8-0.2l1.6-0.2l1.7-0.1l1.9-0.1l2.2-0.1l1.8-0.1l1.6-0.1l1.8-0.1l1.9,0l1.7,0l2.1,0h2.1l1.9,0l2,0l1.7,0l1.8,0l1.9,0.1l2.1,0.1
			l1.8,0.1l1.7,0.1l2.5,0.1l2.1,0.1l1.4,0.1l2.1,0.1l2,0.1l2,0.1l2.3,0.2l1.6,0.1l2,0.1l1.9,0.1l1.8,0.1l1.4,0.1l1.5,0.1l1.5,0.1
			l1.4,0.1l1.6,0.2l1.5,0.2l1.6,0.2l1,0.8l0.9,0.7l1.2,1l1.2,1.1l1,1l0.9,0.9l0.8,0.8l1,1l1.1,1.2l1,1.1l1.1,1.3l0.9,1l1.2,1.4
			l0.8,1l0.9,1.2l1,1.4l0.8,1l0.7,1l1,1.5l0.8,1.2l0.5,0.8l0.6,0.9l1.2,1.9l0.9,1.5l0.7,1.2l0.8,1.5l0.8,1.7l0.3,0.7l0.7,1.4
			l0.5,1.1l0.4,1l0.6,1.5l0.5,1.3l0.5,1.4l0.5,1.3l0.5,1.5l0.4,1.4l0.5,1.5l0.3,1.1l0.3,1.2l0.4,1.6l0.3,1.5L172.8,314.8z"/>
		<g>
			<line class="st3" x1="137.8" y1="154.5" x2="78.8" y2="154.5"/>
			<line class="st3" x1="138.8" y1="164.5" x2="77.5" y2="164.5"/>
			<line class="st3" x1="139.5" y1="174.4" x2="75.9" y2="174.4"/>
			<line class="st3" x1="140.1" y1="184.4" x2="74.4" y2="184.4"/>
			<line class="st3" x1="140.5" y1="194.3" x2="72.8" y2="194.3"/>
			<line class="st3" x1="140.8" y1="204.2" x2="71.1" y2="204.2"/>
			<line class="st3" x1="141" y1="214.2" x2="69.5" y2="214.2"/>
			<line class="st3" x1="141.2" y1="224.1" x2="67.8" y2="224.1"/>
			<line class="st3" x1="141.2" y1="234.1" x2="66.5" y2="234.1"/>
			<line class="st3" x1="141.1" y1="244" x2="64.7" y2="244"/>
		</g>
	</g>
</g>
</svg>
