<svg id="armen" xmlns="http://www.w3.org/2000/svg" viewBox="0 0 595.28 968.5"><defs><style>.cls-1{fill:#e5b69c;}</style></defs><path class="cls-1" d="M388.87,285.43q.83,22.17,1.45,44.34c.4,14,.51,28.09.61,42.13q.07,10.78.2,21.58c.07,6,.26,11.56,2.89,17.09,3.91,8.23.61,18.52-1.24,21.61s-1.85,7.2-5.55,9.05c0,0,.5,14-7.62,14,0,0-7.41,11.73-8.44-15.23-3.09-15.23-6.86-14.6-8.44-9.88-2.26,6.79-8.77,17.5-8.85,6.17,0,0,.41-13.58,1.44-18.11,9.27-8.64,9.47-18.32,9.47-18.32-.06-9.89-2-39.38-3.22-45.82-1.28-6.67-3-51.05-1.92-59.55S388.87,285.43,388.87,285.43Z"/><path class="cls-1" d="M205.92,285.43q-.81,22.17-1.44,44.34c-.41,14-.51,28.09-.62,42.13-.05,7.19-.1,14.39-.19,21.58-.07,6-.27,11.56-2.89,17.09-3.91,8.23-.62,18.52,1.23,21.61s1.86,7.2,5.56,9.05c0,0-.5,14,7.62,14,0,0,7.4,11.73,8.43-15.23,3.09-15.23,6.87-14.6,8.44-9.88,2.27,6.79,8.77,17.5,8.85,6.17,0,0-.41-13.58-1.44-18.11-9.26-8.64-9.47-18.32-9.47-18.32.07-9.89,2-39.38,3.23-45.82,1.28-6.67,3-51.05,1.92-59.55S205.92,285.43,205.92,285.43Z"/></svg>