<?xml version="1.0" encoding="utf-8"?>
<!-- Generator: Adobe Illustrator 26.3.1, SVG Export Plug-In . SVG Version: 6.00 Build 0)  -->
<svg version="1.1" xmlns="http://www.w3.org/2000/svg" xmlns:xlink="http://www.w3.org/1999/xlink" x="0px" y="0px"
	 viewBox="0 0 595.3 968.5" style="enable-background:new 0 0 595.3 968.5;" xml:space="preserve">
<style type="text/css">
	.st0{display:none;}
	.st1{display:inline;}
	.st2{fill:#64BB93;}
	.st3{fill:#B8DDCE;}
	.st4{display:inline;fill:#E5B69C;}
	.st5{fill:#E5B69C;}
	.st6{display:inline;fill:#1F2B4F;}
	.st7{fill:#B6B390;}
	.st8{fill:#909A90;}
	.st9{fill:#2A6A50;}
	.st10{fill:#0C3725;}
	.st11{display:inline;fill:#6E8FAF;}
	.st12{fill:#DDEFF1;}
	.st13{fill:#969ED0;}
	.st14{fill:#374C9B;}
	.st15{fill:#4B65AD;}
	.st16{fill:#4F2671;}
	.st17{display:inline;fill:#29235C;}
	.st18{fill:#92AA4F;}
	.st19{fill:#29235C;}
	.st20{fill:#26191B;}
	.st21{fill:#814A97;}
	.st22{fill:#C6C6C6;}
	.st23{fill:#E9E7F0;}
	.st24{fill:none;stroke:#814A97;stroke-width:0.672;stroke-miterlimit:10;}
	.st25{fill:#BE1823;}
	.st26{fill:none;stroke:#BE1823;stroke-width:0.672;stroke-miterlimit:10;}
	.st27{display:inline;fill:#E5B69C;stroke:#CB8F85;stroke-width:0.25;stroke-miterlimit:10;}
	.st28{fill:#FFFFFF;stroke:#CB8F85;stroke-width:0.25;stroke-miterlimit:10;}
	.st29{fill:none;stroke:#CB8F85;stroke-width:0.25;stroke-miterlimit:10;}
	.st30{display:inline;fill:#CB8F85;}
	.st31{fill:#FFFFFF;}
	.st32{fill:#9ECB84;}
	.st33{fill:#82523D;}
	.st34{fill:none;stroke:#000000;stroke-width:0.5;stroke-miterlimit:10;}
	.st35{display:inline;fill:#82523D;}
	.st36{display:inline;fill:#353635;}
	.st37{fill:#ECDD51;}
	.st38{fill:#662483;}
	.st39{fill:url(#SVGID_1_);}
	.st40{fill:url(#SVGID_00000130627804872462377640000017892890211605767091_);}
	.st41{fill:#CFCDDD;}
	.st42{fill:#B4B0C8;}
	.st43{fill:#4B4F7F;}
	.st44{fill:#3A3938;}
	.st45{fill:#FFD700;}
	.st46{fill:#FFE78A;}
	.st47{fill:#9C7859;}
	.st48{fill:#BF9473;}
</style>
<g id="pedestal" class="st0">
	<g class="st1">
		<rect x="158.7" y="762.7" class="st2" width="275.7" height="205.8"/>
		<ellipse class="st3" cx="296.6" cy="762.7" rx="137.9" ry="46"/>
	</g>
</g>
<g id="body_1_">
	<g id="onderlichaam_1_">
		<g id="benen_1_" class="st0">
			<path class="st4" d="M355.1,701.1c0,0,4.7-82.4,1.1-108c0.5-17.9,2.6-65.8,3.2-86.5c0.6-20.7-1.4-66.1-3.3-73.4
				c0,0-25.1,5.8-53.6,35.9c0,0,8.8,51,12.3,69.4s2.6,15.8,4.3,22.5c0.7,2.7,1.3,5.6,1.7,8.4c1.4,9.4,0.7,18.9,0.5,28.5
				c-0.3,26.6,3.9,59,4.6,66.8c0.7,8.5,3,36.3,3,36.3L355.1,701.1z"/>
			<path class="st4" d="M266.2,701.4c0,0,2.3-28.2,3-36.7c0.6-7.8,4.9-40.2,4.6-66.8c-0.1-9.5-0.9-19,0.5-28.5
				c0.4-2.8,1-5.7,1.7-8.4c1.8-6.7,0.8-4.1,4.3-22.5s12.5-69.4,12.5-69.4c-37-36.5-54-35.1-54-35.1c-1.9,7.3-3.8,51.8-3.2,72.5
				c0.6,20.7,2.7,68.7,3.2,86.5c-3.7,25.6,1.1,108.2,1.1,108.2H266.2z"/>
		</g>
		<g id="voeten_1_">
			<path class="st5" d="M328.9,700.7c0,0,2.3,23.8,0.5,36.8c-1.4,10.6-1.2,19.5,1.7,24.8c0.3,0.6,0.5,1.2,0.4,1.9
				c-0.3,6-0.4,11.6,1.9,16.6c2.3,4.9,10.8,5.2,13.1,1.2c0,0,5.2,6.3,9.4,0.6c0,0,3.9,4.3,7.7-0.3c0,0,5.3,2.9,7-0.5
				c0,0,7.3,3.3,6.8-3.7c-0.5-7-8.4-17.1-13.1-25.3c-4.7-8.2-9.4-19-10-24.1c-0.5-5.1,0.3-23.7,0.7-27.9H328.9z"/>
			<path class="st5" d="M266.2,700.7c0,0-2.3,23.8-0.5,36.8c1.4,10.6,1.2,19.5-1.7,24.8c-0.3,0.6-0.5,1.2-0.4,1.9
				c0.3,6,0.4,11.6-1.9,16.6c-2.3,4.9-10.8,5.2-13.1,1.2c0,0-5.2,6.3-9.4,0.6c0,0-3.9,4.3-7.7-0.3c0,0-5.3,2.9-7-0.5
				c0,0-7.3,3.3-6.8-3.7c0.5-7,8.4-17.1,13.1-25.3s9.4-19,10-24.1c0.5-5.1-0.3-23.7-0.7-27.9H266.2z"/>
		</g>
		<g id="boxer" class="st0">
			<path class="st6" d="M292.9,469.2c0,0-32.5-33.7-54-35.1c0,0-4.1-24.5,2-34.4c46,14.6,113,0,113,0s2.8,19.4,2.1,33.5
				c0,0-22.6,4.3-53.6,35.9H292.9z"/>
		</g>
	</g>
	<g id="bovenlichaam" class="st0">
		<path class="st4" d="M205.9,284.9c0,0,0.5-19.4,2.5-26.8c2-7.5,8.4-22.8,32.4-30.3c0,0,17.7-7.3,26.7-16.8h60.4
			c0,0,13.3,12.3,30,18.8c0,0,25.2,9.1,28.9,25.2c0,0,1.7,16.3,2.1,29.9l-29.2,9.1c0,0-5.7,67-5.8,105.8c-51.5,24.9-113,0-113,0
			s-0.8-82.8-5.8-105.8L205.9,284.9z"/>
		<g id="armen_1_">
			<path class="st4" d="M388.9,284.9c0.5,14.8,1,29.6,1.4,44.3c0.4,14,0.5,28.1,0.6,42.1c0.1,7.2,0.1,14.4,0.2,21.6
				c0.1,6,0.3,11.6,2.9,17.1c3.9,8.2,0.6,18.5-1.2,21.6s-1.9,7.2-5.6,9.1c0,0,0.5,14-7.6,14c0,0-7.4,11.7-8.4-15.2
				c-3.1-15.2-6.9-14.6-8.4-9.9c-2.3,6.8-8.8,17.5-8.9,6.2c0,0,0.4-13.6,1.4-18.1c9.3-8.6,9.5-18.3,9.5-18.3
				c-0.1-9.9-2-39.4-3.2-45.8c-1.3-6.7-3-51-1.9-59.5C360.7,285.4,388.9,284.9,388.9,284.9z"/>
			<path class="st4" d="M205.9,284.9c-0.5,14.8-1,29.6-1.4,44.3c-0.4,14-0.5,28.1-0.6,42.1c-0.1,7.2-0.1,14.4-0.2,21.6
				c-0.1,6-0.3,11.6-2.9,17.1c-3.9,8.2-0.6,18.5,1.2,21.6c1.9,3.1,1.9,7.2,5.6,9.1c0,0-0.5,14,7.6,14c0,0,7.4,11.7,8.4-15.2
				c3.1-15.2,6.9-14.6,8.4-9.9c2.3,6.8,8.8,17.5,8.9,6.2c0,0-0.4-13.6-1.4-18.1c-9.3-8.6-9.5-18.3-9.5-18.3c0.1-9.9,2-39.4,3.2-45.8
				c1.3-6.7,3-51,1.9-59.5C234.1,285.4,205.9,284.9,205.9,284.9z"/>
		</g>
	</g>
</g>
<g id="broek_1" class="st0">
	<g class="st1">
		<path class="st7" d="M361.1,436.8c0,0-0.8,32.5-1,40.9c-0.2,8.3-2,70.5-2.5,74.4c0,0,2.3,2.5,0.5,8c0,0,1,2.8-0.2,6
			c0,0,2.9,25.3,1.5,51.2c-1.5,25.8,0,62.4-0.2,67.7c-0.2,5.2,2.1,3.1-0.3,8.7c0,0,4.8,7-8.8,9.3c-13.6,2.3-25.2-0.3-25.2-3.9
			c0-3.6-1.1-6.9-1.1-7.7c0-0.8,1-2.6-0.5-3.1c-1.5-0.5,0.2-3.4,0.5-4.1c0.3-0.7-4.6-75.7-5.7-87.1c-1.2-11.4-2.3-23.7-2.5-28
			c0,0,2-2.3,0.5-5.1c-1.5-2.8,0-3.8,0.7-5.1c0,0-2.1-2.4-2.8-13.9c-0.7-11.6-11.1-55.2-16.8-62.1c-5.7,6.9-16.2,50.5-16.8,62.1
			c-0.7,11.6-2.8,13.9-2.8,13.9c0.7,1.3,2.1,2.3,0.7,5.1c-1.5,2.8,0.5,5.1,0.5,5.1c-0.2,4.3-1.3,16.5-2.4,28
			c-1.2,11.4-6.1,86.5-5.7,87.1c0.3,0.7,2,3.6,0.5,4.1c-1.5,0.5-0.5,2.3-0.5,3.1c0,0.8-1.1,4.1-1.1,7.7c0,3.6-11.6,6.2-25.2,3.9
			c-13.6-2.3-8.8-9.3-8.8-9.3c-2.4-5.6-0.2-3.4-0.3-8.7c-0.2-5.2,1.3-41.8-0.2-67.7c-1.5-25.8,1.5-51.2,1.5-51.2
			c-1.1-3.3-0.2-6-0.2-6c-1.8-5.6,0.5-8,0.5-8c-0.5-3.9-2.3-66-2.4-74.4c-0.2-8.3-1-40.9-1-40.9c-0.8-9.3,0.8-11.6,0.8-11.6
			c1.4-6.1,0.1-8,0.1-8c-0.4-7,2.2-17,2.2-17c19.1,9.3,60.9,7.6,60.9,7.6s41.8,1.6,60.9-7.6c0,0,2.6,10,2.2,17c0,0-1.4,1.9,0.1,8
			C360.4,425.2,362,427.5,361.1,436.8z"/>
	</g>
	<g class="st1">
		<path class="st7" d="M361.1,436.8c0,0-0.8,32.5-1,40.9c-0.2,8.3-2,70.5-2.5,74.4c0,0,2.3,2.5,0.5,8c0,0,1,2.8-0.2,6
			c0,0,2.9,25.3,1.5,51.2c-1.5,25.8,0,62.4-0.2,67.7c-0.2,5.2,2.1,3.1-0.3,8.7c0,0,4.8,7-8.8,9.3c-13.6,2.3-25.2-0.3-25.2-3.9
			c0-3.6-1.1-6.9-1.1-7.7c0-0.8,1-2.6-0.5-3.1c-1.5-0.5,0.2-3.4,0.5-4.1c0.3-0.7-4.6-75.7-5.7-87.1c-1.2-11.4-2.3-23.7-2.5-28
			c0,0,2-2.3,0.5-5.1c-1.5-2.8,0-3.8,0.7-5.1c0,0-2.1-2.4-2.8-13.9c-0.7-11.6-11.1-55.2-16.8-62.1c-5.7,6.9-16.2,50.5-16.8,62.1
			c-0.7,11.6-2.8,13.9-2.8,13.9c0.7,1.3,2.1,2.3,0.7,5.1c-1.5,2.8,0.5,5.1,0.5,5.1c-0.2,4.3-1.3,16.5-2.4,28
			c-1.2,11.4-6.1,86.5-5.7,87.1c0.3,0.7,2,3.6,0.5,4.1c-1.5,0.5-0.5,2.3-0.5,3.1c0,0.8-1.1,4.1-1.1,7.7c0,3.6-11.6,6.2-25.2,3.9
			c-13.6-2.3-8.8-9.3-8.8-9.3c-2.4-5.6-0.2-3.4-0.3-8.7c-0.2-5.2,1.3-41.8-0.2-67.7c-1.5-25.8,1.5-51.2,1.5-51.2
			c-1.1-3.3-0.2-6-0.2-6c-1.8-5.6,0.5-8,0.5-8c-0.5-3.9-2.3-66-2.4-74.4c-0.2-8.3-1-40.9-1-40.9c-0.8-9.3,0.8-11.6,0.8-11.6
			c1.4-6.1,0.1-8,0.1-8c-0.4-7,2.2-17,2.2-17c19.1,9.3,60.9,7.6,60.9,7.6s41.8,1.6,60.9-7.6c0,0,2.6,10,2.2,17c0,0-1.4,1.9,0.1,8
			C360.4,425.2,362,427.5,361.1,436.8z"/>
	</g>
</g>
<g id="broek_2" class="st0">
	<g class="st1">
		<path class="st8" d="M361.3,437.3c0,0-0.8,32.5-1,40.8c-0.2,8.3-2,70.3-2.5,74.2c0,0,2.3,2.5,0.5,8c0,0,1,2.8-0.2,6
			c0,0,2.9,25.3,1.5,51.1c-1.5,25.8,0,62.3-0.2,67.6c-0.2,5.2,2.1,3.1-0.3,8.6c0,0,4.7,7-8.8,9.3c-13.6,2.3-25.1-0.3-25.1-3.9
			c0-3.6-1.1-6.9-1.1-7.7c0-0.8,1-2.6-0.5-3.1c-1.5-0.5,0.2-3.4,0.5-4.1c0.3-0.7-4.6-75.6-5.7-87c-1.2-11.4-2.3-23.7-2.5-27.9
			c0,0,2-2.3,0.5-5.1c-1.5-2.8,0-3.8,0.7-5.1c0,0-2.1-2.4-2.8-13.9c-0.7-11.5-11.1-55.1-16.8-62c-5.7,6.9-16.2,50.4-16.8,62
			c-0.7,11.5-2.8,13.9-2.8,13.9c0.7,1.3,2.1,2.3,0.7,5.1c-1.5,2.8,0.5,5.1,0.5,5.1c-0.2,4.2-1.3,16.5-2.4,27.9
			c-1.2,11.4-6,86.3-5.7,87c0.3,0.7,2,3.6,0.5,4.1c-1.5,0.5-0.5,2.3-0.5,3.1c0,0.8-1.1,4.1-1.1,7.7c0,3.6-11.6,6.2-25.1,3.9
			c-13.6-2.3-8.8-9.3-8.8-9.3c-2.4-5.5-0.2-3.4-0.3-8.6c-0.2-5.2,1.3-41.8-0.2-67.6c-1.5-25.8,1.5-51.1,1.5-51.1
			c-1.1-3.3-0.2-6-0.2-6c-1.8-5.5,0.5-8,0.5-8c-0.5-3.9-2.3-65.9-2.4-74.2c-0.2-8.3-1-40.8-1-40.8c-0.8-9.3,0.8-11.6,0.8-11.6
			c1.4-6,0.1-8,0.1-8c-0.4-7,2.2-17,2.2-17c19.6,7.5,60.8,7.6,60.8,7.6s41.8,1.6,60.8-7.6c0,0,2.6,10,2.2,17c0,0-1.4,1.9,0.1,8
			C360.5,425.7,362.1,428,361.3,437.3z"/>
		<g>
			<polygon class="st9" points="336.5,517.7 336.5,549 358.1,548 359.1,519.5 			"/>
			<polyline class="st10" points="359.8,499.3 335.1,500.2 335.1,516.3 340.1,521.3 359.1,519.5 359.8,499.3 			"/>
		</g>
		<g>
			<polygon class="st9" points="258.6,517.7 258.6,549 237,548 236.1,519.5 			"/>
			<polyline class="st10" points="235.3,499.3 260,500.2 260,516.3 255,521.3 236.1,519.5 235.3,499.3 			"/>
		</g>
	</g>
</g>
<g id="broek_3" class="st0">
	<path class="st11" d="M236.7,400.7c0,0,61.3,15.7,122.6,0c0,0,18.3,108.8,22.7,128.2c0,0-23.3,14.3-73.5,12.4
		c0,0-5.8-45.4-10.9-54.3c0,0-9.4,34.2-10.2,54.5c0,0-49,0.9-73.9-12.6C213.5,528.9,235.5,411.5,236.7,400.7z"/>
</g>
<g id="armen" class="st0">
	<path class="st4" d="M388.9,285.4c0.5,14.8,1,29.6,1.4,44.3c0.4,14,0.5,28.1,0.6,42.1c0.1,7.2,0.1,14.4,0.2,21.6
		c0.1,6,0.3,11.6,2.9,17.1c3.9,8.2,0.6,18.5-1.2,21.6c-1.9,3.1-1.9,7.2-5.6,9.1c0,0,0.5,14-7.6,14c0,0-7.4,11.7-8.4-15.2
		c-3.1-15.2-6.9-14.6-8.4-9.9c-2.3,6.8-8.8,17.5-8.9,6.2c0,0,0.4-13.6,1.4-18.1c9.3-8.6,9.5-18.3,9.5-18.3c-0.1-9.9-2-39.4-3.2-45.8
		c-1.3-6.7-3-51-1.9-59.5C360.7,286,388.9,285.4,388.9,285.4z"/>
	<path class="st4" d="M205.9,285.4c-0.5,14.8-1,29.6-1.4,44.3c-0.4,14-0.5,28.1-0.6,42.1c-0.1,7.2-0.1,14.4-0.2,21.6
		c-0.1,6-0.3,11.6-2.9,17.1c-3.9,8.2-0.6,18.5,1.2,21.6c1.9,3.1,1.9,7.2,5.6,9.1c0,0-0.5,14,7.6,14c0,0,7.4,11.7,8.4-15.2
		c3.1-15.2,6.9-14.6,8.4-9.9c2.3,6.8,8.8,17.5,8.9,6.2c0,0-0.4-13.6-1.4-18.1c-9.3-8.6-9.5-18.3-9.5-18.3c0.1-9.9,2-39.4,3.2-45.8
		c1.3-6.7,3-51,1.9-59.5C234.1,286,205.9,285.4,205.9,285.4z"/>
</g>
<g id="t-shirt_1" class="st0">
	<g class="st1">
		<path class="st12" d="M399.3,306.1c0,0-33.7,7.1-39.3,9.7c0,0,0,76.9,0,84.5c-31.5,14.8-92.4,11.8-124.6,0c0-7.6,0-84.5,0-84.5
			c-5.6-2.6-39.3-9.7-39.3-9.7c2-10.7,12.4-50.6,12.4-50.6c4.1-12.7,11.3-19.3,32.2-27.9c21.5-8.8,26.9-16.4,26.9-16.4l30.1,7h0
			l30.2-7c0,0,5.4,6.8,26.8,16.4c20.6,9.2,28.4,15.2,32.2,27.9C386.9,255.5,397.3,295.3,399.3,306.1z"/>
	</g>
</g>
<g id="t-shirt_2" class="st0">
	<g class="st1">
		<path class="st13" d="M398.9,306.2c-9.8,1.4-38.9,9.5-38.9,9.5v84.5c-31.4,14.8-92.5,11.7-124.6,0v-84.3
			c-5.6-2.6-39.3-9.7-39.3-9.7c2-10.7,12.4-50.5,12.4-50.5s2.8-13.1,16.9-20.8c16.1-8.9,30.3-12.8,42.2-23.4l30,7.1l30.3-7.4
			c6.9,7.9,27.9,16.8,42.2,24.1c13.8,7,16.8,20.2,16.8,20.2c1.7,6.4,4.6,18,7.2,29.3C396.8,296.2,398.9,306.2,398.9,306.2z"/>
		<g>
			<circle class="st14" cx="297.5" cy="242.4" r="2.1"/>
			<circle class="st14" cx="297.5" cy="249" r="2.1"/>
			<circle class="st14" cx="297.5" cy="255.6" r="2.1"/>
		</g>
		<g>
			<path class="st15" d="M338.8,293.1h-9.5c-4,0-7.3-3.3-7.3-7.3V269h24.1v16.8C346.1,289.8,342.8,293.1,338.8,293.1z"/>
			<rect x="322" y="267.3" class="st16" width="24.1" height="1.7"/>
		</g>
	</g>
</g>
<g id="nek" class="st0">
	<path class="st4" d="M327.9,199.3c0,0-0.5,4.7,0,12.2c0.5,7.5-4.6,25.7-30.2,25.7c-25.6,0-30.1-25.7-30.1-25.7s0.4-7,0.1-11.3l0,0
		L327.9,199.3L327.9,199.3z"/>
</g>
<g id="t-shirt_3" class="st0">
	<path class="st17" d="M196.2,306.2l-1.7,7.8c0,0,33.4,7.1,41,9.9v-8C206.3,305.9,196.2,306.2,196.2,306.2z"/>
	<path class="st17" d="M399,306.2l1.6,7.9c0,0-33,6.7-40.5,9.5v-7.9C389.2,305.7,399,306.2,399,306.2z"/>
	<g class="st1">
		<path class="st18" d="M394.2,284.8c-2.6-11.3-5.6-22.9-7.2-29.3c0,0-3-13.2-16.8-20.2c-14.2-7.2-35.3-16.2-42.2-24.1
			c0,0.1,0,0.2,0,0.3c0.4,6.5-3.4,21.1-21.2,24.8l-9.6-10.9l0,0l-8.3,10.6c-17.8-5-21.3-24.5-21.3-24.5
			c-11.9,10.6-26.1,14.5-42.2,23.4c-14.2,7.8-16.9,20.8-16.9,20.8s-10.3,39.8-12.4,50.5c0,0,33.7,7.1,39.2,9.7v84.3
			c32.1,11.7,93.2,14.8,124.6,0v-84.5c0,0,29.1-8.1,38.9-9.5C399,306.2,396.8,296.2,394.2,284.8z M297.6,244.5
			c-1.2,0-2.1-0.9-2.1-2.1c0-1.2,0.9-2.1,2.1-2.1c1.1,0,2.1,0.9,2.1,2.1C299.7,243.6,298.7,244.5,297.6,244.5z M346.2,285.8
			c0,4-3.3,7.3-7.3,7.3h-9.5c-4,0-7.3-3.3-7.3-7.3v-18.5h24.1V285.8z"/>
		<g>
			<path class="st19" d="M299.7,242.4c0,1.1-0.9,2.1-2.1,2.1c-1.2,0-2.1-0.9-2.1-2.1c0-1.2,0.9-2.1,2.1-2.1
				C298.7,240.3,299.7,241.3,299.7,242.4z"/>
		</g>
		<g>
			<path class="st19" d="M299.7,261.8c0,1.1-0.9,2.1-2.1,2.1c-1.2,0-2.1-0.9-2.1-2.1c0-1.2,0.9-2.1,2.1-2.1
				C298.7,259.7,299.7,260.7,299.7,261.8z"/>
		</g>
		<g>
			<path class="st19" d="M299.7,281.2c0,1.1-0.9,2.1-2.1,2.1c-1.2,0-2.1-0.9-2.1-2.1c0-1.2,0.9-2.1,2.1-2.1
				C298.7,279.1,299.7,280.1,299.7,281.2z"/>
		</g>
		<g>
			<path class="st19" d="M299.7,300.6c0,1.1-0.9,2.1-2.1,2.1c-1.2,0-2.1-0.9-2.1-2.1c0-1.2,0.9-2.1,2.1-2.1
				C298.7,298.5,299.7,299.5,299.7,300.6z"/>
		</g>
		<g>
			<path class="st19" d="M299.7,320c0,1.1-0.9,2.1-2.1,2.1c-1.2,0-2.1-0.9-2.1-2.1c0-1.2,0.9-2.1,2.1-2.1
				C298.7,318,299.7,318.9,299.7,320z"/>
		</g>
		<g>
			<path class="st19" d="M299.7,339.4c0,1.1-0.9,2.1-2.1,2.1c-1.2,0-2.1-0.9-2.1-2.1c0-1.2,0.9-2.1,2.1-2.1
				C298.7,337.4,299.7,338.3,299.7,339.4z"/>
		</g>
		<g>
			<path class="st19" d="M299.6,359.4c-0.2,0.7-0.8,1.3-1.5,1.5c-1.6,0.4-3-1-2.5-2.6c0.2-0.7,0.8-1.3,1.5-1.5
				C298.6,356.5,300,357.8,299.6,359.4z"/>
		</g>
		<g>
			<path class="st19" d="M299.6,399.1c-0.2,0.7-0.8,1.3-1.5,1.5c-1.6,0.4-3-1-2.5-2.6c0.2-0.7,0.8-1.3,1.5-1.5
				C298.6,396.2,300,397.6,299.6,399.1z"/>
		</g>
		<g>
			<path class="st19" d="M299.7,378.3c0,1.1-0.9,2.1-2.1,2.1c-1.2,0-2.1-0.9-2.1-2.1c0-1.2,0.9-2.1,2.1-2.1
				C298.7,376.2,299.7,377.1,299.7,378.3z"/>
		</g>
		<g>
			<path class="st19" d="M346.2,269v16.8c0,4-3.3,7.3-7.3,7.3h-9.5c-4,0-7.3-3.3-7.3-7.3V269H346.2z"/>
			<rect x="322" y="267.3" class="st20" width="24.1" height="1.7"/>
		</g>
	</g>
	<path class="st17" d="M267.8,203.7c0,0-1.7,15.9,29.4,21.7c0,0-5.6,12-9.3,13.9l0,0l0,0c0,0-21.1-9.1-26.4-21.8
		C261.5,217.6,262.6,210.4,267.8,203.7"/>
	<path class="st17" d="M327.7,203.7c0,0,0.6,15.9-30.5,21.7c0,0,5.6,12,9.3,13.9l0,0l0,0c0,0,21.1-9.1,26.4-21.8
		C333,217.6,332.9,210.4,327.7,203.7"/>
</g>
<g id="Laag_27" class="st0">
</g>
<g id="schoenen_1" class="st0">
	<g class="st1">
		<g>
			<path class="st21" d="M351.8,699.9c0,0,3,2.9,5.5,0.8l0,0c0.6,1.4,1.5,7.8,3,15.1c3.1,14.8,11.8,32.8,10.8,47
				c0,0-2.5-10.8-11.4-17.3"/>
			<path class="st22" d="M322.9,762.2c-4.5,19.3,10.2,23.1,24.1,23.1c12.2,0,28.3-7.1,24.1-23.2s0,0,0,0L322.9,762.2"/>
			<path class="st21" d="M326.1,700.4L326.1,700.4c-0.6,1.4,0.1,4.5-0.2,8.7c-0.3,6.9-3.1,44.8-3.1,53.5c0,0,1.5-10.1,10.6-17.3
				c0,0-1-36.9,3.1-45.5C336.5,699.9,329.9,704.4,326.1,700.4z"/>
			<path class="st23" d="M333.5,745.3c0,0,18.5-2.1,26.4,0c0,0-6-35.5-6.7-42.2c-0.7-6.7-11-8.4-16.6-3.3l-0.3,0.6l-0.3,0.7
				l-0.4,1.3l-0.3,1.3l-0.3,1.5l-0.3,2l-0.3,2l-0.2,1.6l-0.2,1.8l-0.1,1.1l-0.1,2l-0.1,2.5l-0.1,2.1l0,1l0,1l0,1l0,1.5l0,1.3l0,1.1
				l0,1.2l0,0.9l0,1.3l0,1.2l0,1.2l0,1.1l0,0.9l0,1.1l0,0.9l0,1l0,1.1l0,1.3l0,0.9l0,0.9l0,1.2l0,1.1L333.5,745.3z"/>
			<path class="st23" d="M322.8,762.7c0,0-2.3,17.1,23.8,17.1c26.1,0,24.6-13.6,24.6-17.1l-0.1-0.5l-0.2-0.6l-0.2-0.8l-0.2-0.7
				l-0.2-0.5l-0.3-0.9l-0.2-0.6l-0.4-0.9l-0.3-0.8l-0.4-0.8l-0.4-0.8l-0.3-0.6l-0.3-0.6l-0.4-0.7l-0.3-0.5l-0.3-0.5l-0.5-0.7
				l-0.5-0.7l-0.4-0.5l-0.4-0.5l-0.4-0.4l-0.5-0.5l-0.4-0.4l-0.6-0.5l-0.6-0.5l-0.6-0.5l-0.4-0.3l-0.5-0.4l-0.6-0.4l-0.5-0.3
				l-0.3-0.1l-0.6-0.1l-0.5-0.1l-0.3-0.1l-0.5-0.1l-0.5-0.1l-0.6-0.1l-0.6-0.1l-0.5-0.1l-0.6,0l-0.6,0l-0.7,0l-0.6,0l-0.5,0l-0.6,0
				l-0.6,0l-0.6,0l-0.7,0h-0.7l-0.6,0l-0.7,0l-0.6,0l-0.6,0l-0.6,0l-0.7,0l-0.6,0l-0.6,0l-0.8,0l-0.7,0l-0.5,0l-0.7,0l-0.7,0l-0.7,0
				l-0.8,0.1l-0.5,0l-0.7,0l-0.6,0l-0.6,0l-0.5,0l-0.5,0l-0.5,0l-0.5,0l-0.5,0.1l-0.5,0.1l-0.5,0.1l-0.3,0.3l-0.3,0.2l-0.4,0.3
				l-0.4,0.4l-0.3,0.3l-0.3,0.3l-0.3,0.3l-0.3,0.3l-0.4,0.4l-0.3,0.4l-0.4,0.4l-0.3,0.3l-0.4,0.5l-0.3,0.3l-0.3,0.4L328,751
				l-0.3,0.3l-0.2,0.3l-0.3,0.5l-0.3,0.4l-0.2,0.3l-0.2,0.3l-0.4,0.6l-0.3,0.5l-0.2,0.4l-0.3,0.5l-0.3,0.6l-0.1,0.2l-0.2,0.5
				l-0.2,0.4l-0.1,0.3l-0.2,0.5l-0.2,0.4l-0.2,0.5l-0.2,0.4l-0.2,0.5l-0.1,0.5l-0.2,0.5l-0.1,0.4l-0.1,0.4l-0.1,0.5l-0.1,0.5
				L322.8,762.7z"/>
			<g>
				<line class="st24" x1="334.5" y1="709.3" x2="354.1" y2="709.3"/>
				<line class="st24" x1="334.1" y1="712.6" x2="354.5" y2="712.6"/>
				<line class="st24" x1="333.9" y1="715.9" x2="355.1" y2="715.9"/>
				<line class="st24" x1="333.7" y1="719.2" x2="355.6" y2="719.2"/>
				<line class="st24" x1="333.6" y1="722.6" x2="356.1" y2="722.6"/>
				<line class="st24" x1="333.5" y1="725.9" x2="356.7" y2="725.9"/>
				<line class="st24" x1="333.4" y1="729.2" x2="357.2" y2="729.2"/>
				<line class="st24" x1="333.3" y1="732.5" x2="357.8" y2="732.5"/>
				<line class="st24" x1="333.3" y1="735.8" x2="358.2" y2="735.8"/>
				<line class="st24" x1="333.4" y1="739.1" x2="358.8" y2="739.1"/>
			</g>
		</g>
		<g>
			<path class="st21" d="M243,699.9c0,0-3,2.9-5.5,0.8l0,0c-0.6,1.4-1.5,7.8-3,15.1c-3.1,14.8-11.8,32.8-10.8,47
				c0,0,2.5-10.8,11.4-17.3"/>
			<path class="st22" d="M272,762.2c4.5,19.3-10.2,23.1-24.1,23.1c-12.2,0-28.3-7.1-24.1-23.2c4.2-16.1,0,0,0,0L272,762.2"/>
			<path class="st21" d="M268.8,700.4L268.8,700.4c0.6,1.4-0.1,4.5,0.2,8.7c0.3,6.9,3.1,44.8,3.1,53.5c0,0-1.5-10.1-10.6-17.3
				c0,0,1-36.9-3.1-45.5C258.3,699.9,265,704.4,268.8,700.4z"/>
			<path class="st23" d="M261.4,745.3c0,0-18.5-2.1-26.4,0c0,0,6-35.5,6.7-42.2c0.7-6.7,11-8.4,16.6-3.3l0.3,0.6l0.3,0.7l0.4,1.3
				l0.3,1.3l0.3,1.5l0.3,2l0.3,2l0.2,1.6l0.2,1.8l0.1,1.1l0.1,2l0.1,2.5l0.1,2.1l0,1l0,1l0,1l0,1.5l0,1.3l0,1.1l0,1.2l0,0.9l0,1.3
				l0,1.2l0,1.2l0,1.1l0,0.9l0,1.1l0,0.9l0,1l0,1.1l0,1.3l0,0.9l0,0.9l0,1.2l0,1.1L261.4,745.3z"/>
			<path class="st23" d="M272.1,762.7c0,0,2.3,17.1-23.8,17.1s-24.6-13.6-24.6-17.1l0.1-0.5l0.2-0.6l0.2-0.8l0.2-0.7l0.2-0.5
				l0.3-0.9l0.2-0.6l0.4-0.9l0.3-0.8l0.4-0.8l0.4-0.8l0.3-0.6l0.3-0.6l0.4-0.7l0.3-0.5l0.3-0.5l0.5-0.7l0.5-0.7l0.4-0.5l0.4-0.5
				l0.4-0.4l0.5-0.5l0.4-0.4l0.6-0.5l0.6-0.5l0.6-0.5l0.4-0.3l0.5-0.4l0.6-0.4l0.5-0.3l0.3-0.1l0.6-0.1l0.5-0.1l0.3-0.1l0.5-0.1
				l0.5-0.1l0.6-0.1l0.6-0.1l0.5-0.1l0.6,0l0.6,0l0.7,0l0.6,0l0.5,0l0.6,0l0.6,0l0.6,0l0.7,0h0.7l0.6,0l0.7,0l0.6,0l0.6,0l0.6,0
				l0.7,0l0.6,0l0.6,0l0.8,0l0.7,0l0.5,0l0.7,0l0.7,0l0.7,0l0.8,0.1l0.5,0l0.7,0l0.6,0l0.6,0l0.5,0l0.5,0l0.5,0l0.5,0l0.5,0.1
				l0.5,0.1l0.5,0.1l0.3,0.3l0.3,0.2l0.4,0.3l0.4,0.4l0.3,0.3l0.3,0.3l0.3,0.3l0.3,0.3l0.4,0.4l0.3,0.4l0.4,0.4l0.3,0.3l0.4,0.5
				l0.3,0.3l0.3,0.4l0.3,0.5l0.3,0.3l0.2,0.3l0.3,0.5l0.3,0.4l0.2,0.3l0.2,0.3l0.4,0.6l0.3,0.5l0.2,0.4l0.3,0.5l0.3,0.6l0.1,0.2
				l0.2,0.5l0.2,0.4l0.1,0.3l0.2,0.5l0.2,0.4l0.2,0.5l0.2,0.4l0.2,0.5l0.1,0.5l0.2,0.5l0.1,0.4l0.1,0.4l0.1,0.5l0.1,0.5L272.1,762.7
				z"/>
			<g>
				<line class="st24" x1="260.4" y1="709.3" x2="240.8" y2="709.3"/>
				<line class="st24" x1="260.8" y1="712.6" x2="240.3" y2="712.6"/>
				<line class="st24" x1="261" y1="715.9" x2="239.8" y2="715.9"/>
				<line class="st24" x1="261.2" y1="719.2" x2="239.3" y2="719.2"/>
				<line class="st24" x1="261.3" y1="722.6" x2="238.8" y2="722.6"/>
				<line class="st24" x1="261.4" y1="725.9" x2="238.2" y2="725.9"/>
				<line class="st24" x1="261.5" y1="729.2" x2="237.7" y2="729.2"/>
				<line class="st24" x1="261.5" y1="732.5" x2="237.1" y2="732.5"/>
				<line class="st24" x1="261.5" y1="735.8" x2="236.7" y2="735.8"/>
				<line class="st24" x1="261.5" y1="739.1" x2="236.1" y2="739.1"/>
			</g>
		</g>
	</g>
</g>
<g id="schoenen_1.2" class="st0">
	<g class="st1">
		<g>
			<path class="st25" d="M351.8,699.9c0,0,3,2.9,5.5,0.8l0,0c0.6,1.4,1.5,7.8,3,15.1c3.1,14.8,11.8,32.8,10.8,47
				c0,0-2.5-10.8-11.4-17.3"/>
			<path class="st22" d="M322.9,762.2c-4.5,19.3,10.2,23.1,24.1,23.1c12.2,0,28.3-7.1,24.1-23.2s0,0,0,0L322.9,762.2"/>
			<path class="st25" d="M326.1,700.4L326.1,700.4c-0.6,1.4,0.1,4.5-0.2,8.7c-0.3,6.9-3.1,44.8-3.1,53.5c0,0,1.5-10.1,10.6-17.3
				c0,0-1-36.9,3.1-45.5C336.5,699.9,329.9,704.4,326.1,700.4z"/>
			<path class="st23" d="M333.5,745.3c0,0,18.5-2.1,26.4,0c0,0-6-35.5-6.7-42.2c-0.7-6.7-11-8.4-16.6-3.3l-0.3,0.6l-0.3,0.7
				l-0.4,1.3l-0.3,1.3l-0.3,1.5l-0.3,2l-0.3,2l-0.2,1.6l-0.2,1.8l-0.1,1.1l-0.1,2l-0.1,2.5l-0.1,2.1l0,1l0,1l0,1l0,1.5l0,1.3l0,1.1
				l0,1.2l0,0.9l0,1.3l0,1.2l0,1.2l0,1.1l0,0.9l0,1.1l0,0.9l0,1l0,1.1l0,1.3l0,0.9l0,0.9l0,1.2l0,1.1L333.5,745.3z"/>
			<path class="st23" d="M322.8,762.7c0,0-2.3,17.1,23.8,17.1c26.1,0,24.6-13.6,24.6-17.1l-0.1-0.5l-0.2-0.6l-0.2-0.8l-0.2-0.7
				l-0.2-0.5l-0.3-0.9l-0.2-0.6l-0.4-0.9l-0.3-0.8l-0.4-0.8l-0.4-0.8l-0.3-0.6l-0.3-0.6l-0.4-0.7l-0.3-0.5l-0.3-0.5l-0.5-0.7
				l-0.5-0.7l-0.4-0.5l-0.4-0.5l-0.4-0.4l-0.5-0.5l-0.4-0.4l-0.6-0.5l-0.6-0.5l-0.6-0.5l-0.4-0.3l-0.5-0.4l-0.6-0.4l-0.5-0.3
				l-0.3-0.1l-0.6-0.1l-0.5-0.1l-0.3-0.1l-0.5-0.1l-0.5-0.1l-0.6-0.1l-0.6-0.1l-0.5-0.1l-0.6,0l-0.6,0l-0.7,0l-0.6,0l-0.5,0l-0.6,0
				l-0.6,0l-0.6,0l-0.7,0h-0.7l-0.6,0l-0.7,0l-0.6,0l-0.6,0l-0.6,0l-0.7,0l-0.6,0l-0.6,0l-0.8,0l-0.7,0l-0.5,0l-0.7,0l-0.7,0l-0.7,0
				l-0.8,0.1l-0.5,0l-0.7,0l-0.6,0l-0.6,0l-0.5,0l-0.5,0l-0.5,0l-0.5,0l-0.5,0.1l-0.5,0.1l-0.5,0.1l-0.3,0.3l-0.3,0.2l-0.4,0.3
				l-0.4,0.4l-0.3,0.3l-0.3,0.3l-0.3,0.3l-0.3,0.3l-0.4,0.4l-0.3,0.4l-0.4,0.4l-0.3,0.3l-0.4,0.5l-0.3,0.3l-0.3,0.4L328,751
				l-0.3,0.3l-0.2,0.3l-0.3,0.5l-0.3,0.4l-0.2,0.3l-0.2,0.3l-0.4,0.6l-0.3,0.5l-0.2,0.4l-0.3,0.5l-0.3,0.6l-0.1,0.2l-0.2,0.5
				l-0.2,0.4l-0.1,0.3l-0.2,0.5l-0.2,0.4l-0.2,0.5l-0.2,0.4l-0.2,0.5l-0.1,0.5l-0.2,0.5l-0.1,0.4l-0.1,0.4l-0.1,0.5l-0.1,0.5
				L322.8,762.7z"/>
			<g>
				<line class="st26" x1="334.5" y1="709.3" x2="354.1" y2="709.3"/>
				<line class="st26" x1="334.1" y1="712.6" x2="354.5" y2="712.6"/>
				<line class="st26" x1="333.9" y1="715.9" x2="355.1" y2="715.9"/>
				<line class="st26" x1="333.7" y1="719.2" x2="355.6" y2="719.2"/>
				<line class="st26" x1="333.6" y1="722.6" x2="356.1" y2="722.6"/>
				<line class="st26" x1="333.5" y1="725.9" x2="356.7" y2="725.9"/>
				<line class="st26" x1="333.4" y1="729.2" x2="357.2" y2="729.2"/>
				<line class="st26" x1="333.3" y1="732.5" x2="357.8" y2="732.5"/>
				<line class="st26" x1="333.3" y1="735.8" x2="358.2" y2="735.8"/>
				<line class="st26" x1="333.4" y1="739.1" x2="358.8" y2="739.1"/>
			</g>
		</g>
		<g>
			<path class="st25" d="M243,699.9c0,0-3,2.9-5.5,0.8l0,0c-0.6,1.4-1.5,7.8-3,15.1c-3.1,14.8-11.8,32.8-10.8,47
				c0,0,2.5-10.8,11.4-17.3"/>
			<path class="st22" d="M272,762.2c4.5,19.3-10.2,23.1-24.1,23.1c-12.2,0-28.3-7.1-24.1-23.2c4.2-16.1,0,0,0,0L272,762.2"/>
			<path class="st25" d="M268.8,700.4L268.8,700.4c0.6,1.4-0.1,4.5,0.2,8.7c0.3,6.9,3.1,44.8,3.1,53.5c0,0-1.5-10.1-10.6-17.3
				c0,0,1-36.9-3.1-45.5C258.3,699.9,265,704.4,268.8,700.4z"/>
			<path class="st23" d="M261.4,745.3c0,0-18.5-2.1-26.4,0c0,0,6-35.5,6.7-42.2c0.7-6.7,11-8.4,16.6-3.3l0.3,0.6l0.3,0.7l0.4,1.3
				l0.3,1.3l0.3,1.5l0.3,2l0.3,2l0.2,1.6l0.2,1.8l0.1,1.1l0.1,2l0.1,2.5l0.1,2.1l0,1l0,1l0,1l0,1.5l0,1.3l0,1.1l0,1.2l0,0.9l0,1.3
				l0,1.2l0,1.2l0,1.1l0,0.9l0,1.1l0,0.9l0,1l0,1.1l0,1.3l0,0.9l0,0.9l0,1.2l0,1.1L261.4,745.3z"/>
			<path class="st23" d="M272.1,762.7c0,0,2.3,17.1-23.8,17.1s-24.6-13.6-24.6-17.1l0.1-0.5l0.2-0.6l0.2-0.8l0.2-0.7l0.2-0.5
				l0.3-0.9l0.2-0.6l0.4-0.9l0.3-0.8l0.4-0.8l0.4-0.8l0.3-0.6l0.3-0.6l0.4-0.7l0.3-0.5l0.3-0.5l0.5-0.7l0.5-0.7l0.4-0.5l0.4-0.5
				l0.4-0.4l0.5-0.5l0.4-0.4l0.6-0.5l0.6-0.5l0.6-0.5l0.4-0.3l0.5-0.4l0.6-0.4l0.5-0.3l0.3-0.1l0.6-0.1l0.5-0.1l0.3-0.1l0.5-0.1
				l0.5-0.1l0.6-0.1l0.6-0.1l0.5-0.1l0.6,0l0.6,0l0.7,0l0.6,0l0.5,0l0.6,0l0.6,0l0.6,0l0.7,0h0.7l0.6,0l0.7,0l0.6,0l0.6,0l0.6,0
				l0.7,0l0.6,0l0.6,0l0.8,0l0.7,0l0.5,0l0.7,0l0.7,0l0.7,0l0.8,0.1l0.5,0l0.7,0l0.6,0l0.6,0l0.5,0l0.5,0l0.5,0l0.5,0l0.5,0.1
				l0.5,0.1l0.5,0.1l0.3,0.3l0.3,0.2l0.4,0.3l0.4,0.4l0.3,0.3l0.3,0.3l0.3,0.3l0.3,0.3l0.4,0.4l0.3,0.4l0.4,0.4l0.3,0.3l0.4,0.5
				l0.3,0.3l0.3,0.4l0.3,0.5l0.3,0.3l0.2,0.3l0.3,0.5l0.3,0.4l0.2,0.3l0.2,0.3l0.4,0.6l0.3,0.5l0.2,0.4l0.3,0.5l0.3,0.6l0.1,0.2
				l0.2,0.5l0.2,0.4l0.1,0.3l0.2,0.5l0.2,0.4l0.2,0.5l0.2,0.4l0.2,0.5l0.1,0.5l0.2,0.5l0.1,0.4l0.1,0.4l0.1,0.5l0.1,0.5L272.1,762.7
				z"/>
			<g>
				<line class="st26" x1="260.4" y1="709.3" x2="240.8" y2="709.3"/>
				<line class="st26" x1="260.8" y1="712.6" x2="240.3" y2="712.6"/>
				<line class="st26" x1="261" y1="715.9" x2="239.8" y2="715.9"/>
				<line class="st26" x1="261.2" y1="719.2" x2="239.3" y2="719.2"/>
				<line class="st26" x1="261.3" y1="722.6" x2="238.8" y2="722.6"/>
				<line class="st26" x1="261.4" y1="725.9" x2="238.2" y2="725.9"/>
				<line class="st26" x1="261.5" y1="729.2" x2="237.7" y2="729.2"/>
				<line class="st26" x1="261.5" y1="732.5" x2="237.1" y2="732.5"/>
				<line class="st26" x1="261.5" y1="735.8" x2="236.7" y2="735.8"/>
				<line class="st26" x1="261.5" y1="739.1" x2="236.1" y2="739.1"/>
			</g>
		</g>
	</g>
</g>
<g id="gezicht" class="st0">
	<path class="st27" d="M297.9,211.5c15.7-0.3,38.1-14.7,41.7-26.6c4.1-13.2,1.5-62.3-8.4-73.3c-8.2-9.1-57.7-10.4-67.9,0
		c-12.7,12.9-12.9,72.9-5.1,80.4C266.4,200,280.7,211.8,297.9,211.5z"/>
</g>
<g id="mond" class="st0">
	<g class="st1">
		<path class="st28" d="M281.8,187.3c0,0,3.4,5.9,15.5,5.9c13.6,0,16.2-5.9,16.2-5.9s-4.9,1.3-15.8,1.3S281.8,187.3,281.8,187.3z"/>
		<path class="st29" d="M290.9,196.2c0,0,2.2,1.3,7,1.3s6.6-1.3,6.6-1.3"/>
	</g>
</g>
<g id="neus" class="st0">
	<path class="st30" d="M297.9,181.9c2.6,0,7.3-3.9,6.2-5.2c-0.7-0.9-4.4,0.2-6.2,0.1c-2.2-0.1-6.5-1.1-7,0
		C290.3,178.3,294.3,181.9,297.9,181.9z"/>
</g>
<g id="oren" class="st0">
	<g class="st1">
		<path class="st5" d="M340.9,150.5c0,0,9.5-4,11.9-2.2c2,1.5,2.2,15.4,0.7,17.9c-1.7,2.8-8.3,7.9-12.2,7.5
			C341.3,173.7,338.4,157,340.9,150.5z"/>
		<path class="st5" d="M253.9,150.5c0,0-9.5-4-11.9-2.2c-2,1.5-2.2,15.4-0.7,17.9c1.7,2.8,8.3,7.9,12.2,7.5
			C253.6,173.7,256.5,157,253.9,150.5z"/>
	</g>
</g>
<g id="ogen" class="st0">
	<g class="st1">
		<g id="right_3_">
			<path class="st20" d="M325.6,156.7c0,0,1.8-0.8,2.7-4.6c0.2-0.7-0.1-1.5-0.6-2c-3.9-3.5-13.7-4.7-16.5-2.9
				c-2.1,1.3-3.7,7.1-3.3,9.3L325.6,156.7z"/>
			<g id="right">
				<path class="st31" d="M307.8,156.5c0,0,1.8,2.6,9.7,2.6c9.2,0,9.7-4.5,9.7-7.4c0-1-9.1-5.7-15.2-3
					C310,149.6,307.8,156.5,307.8,156.5z"/>
				<circle class="st32" cx="317.5" cy="152" r="5.5"/>
				<circle class="st20" cx="317.5" cy="152" r="3.8"/>
				<circle class="st31" cx="315" cy="154" r="1.6"/>
			</g>
		</g>
		<g id="left">
			<path class="st20" d="M268.6,156.7c0,0-1.8-0.8-2.7-4.6c-0.2-0.7,0.1-1.5,0.6-2c3.9-3.5,13.7-4.7,16.5-2.9
				c2.1,1.3,3.7,7.1,3.3,9.3L268.6,156.7z"/>
			<g id="right_2_">
				<path class="st31" d="M286.4,156.5c0,0-1.8,2.6-9.7,2.6c-9.2,0-9.7-4.5-9.7-7.4c0-1,9.1-5.7,15.2-3
					C284.2,149.6,286.4,156.5,286.4,156.5z"/>
				<circle class="st32" cx="276.7" cy="152" r="5.5"/>
				<circle class="st20" cx="276.7" cy="152" r="3.8"/>
				<circle class="st31" cx="279.2" cy="154" r="1.6"/>
			</g>
		</g>
	</g>
</g>
<g id="wenkbrauwen" class="st0">
	<g class="st1">
		<path class="st33" d="M327.2,134.6c-4.2-1.6-19.6,3.3-20.4,4.2s-1.4,6.4,0.5,5.1c4.3-2.9,17.6-7.3,20.9-5.6c3.6,1.8,6.1,5,6.1,5
			S330.6,135.9,327.2,134.6z"/>
		<path class="st33" d="M267.1,134.6c-3.4,1.3-7.1,8.6-7.1,8.6s2.6-3.2,6.1-5c3.3-1.7,16.7,2.7,20.9,5.6c1.9,1.3,1.4-4.2,0.5-5.1
			S271.3,133,267.1,134.6z"/>
	</g>
</g>
<g id="ooglapje" class="st0">
	<g class="st1">
		<path class="st34" d="M263.9,120.7c0,0,35.4,29.8,79,33.3"/>
		<circle cx="318" cy="153.4" r="10.6"/>
	</g>
</g>
<g id="kapsel_1" class="st0">
	<path class="st35" d="M339.1,134.6c-4.5-4.8-4.5-13.2-7.5-19.1c-4.5-8.8-27.4-0.8-35.4-1.3c-10.9-0.6-15.9-3.7-24.9-3.5
		c-10.4,0.2-10.1,12.8-13.8,18s-4.1,22.9-4.1,22.9h-7.2c0,0-19.4-53.2,10.4-54.6c0,0,6.6-16,53.2-16c0,0-5,3.7-5.4,6.3
		c0,0,17.3-6.3,50.4-6.3c0,0-0.7,7.3-2.6,12.9c0,0,9.7,19.9-2.1,57.7h-9.3C340.7,151.6,339.9,140.8,339.1,134.6z"/>
</g>
<g id="kapsel_2" class="st0">
	<path class="st36" d="M267.3,91.6c0,0,19.5-22.1,53-6.1c0,0,8.6,5,19.1,1.9c0,0-3.8,2.7-10.5,3.1c0,0,26.5,21.9,29.6,45.4
		c0,0-2.7-3.4-8-6.5c0,0,8,18.7-1.9,30.3c0,0,0.6-19.3-7.2-25.9c0,0,4.8,11.1,1.5,21c0,0-5.9-20.4-13.2-20.4c0,0,5.9,8.6,8.6,17.2
		c0,0-11.8-6.9-16-15.1c0,0,1.5,6.9,4,10.1c0,0-25.7-7.2-36.4-25.7c0,0,9.5,19.8,9.2,30.7c0,0-21.9-4.8-28-17.2
		c0,0,3.1,10.7,9.2,15.4c0,0-16.2-7.2-18.5-28.4c0,0-11.8,25.4-1.3,49.6c0,0-9.3-5.5-11.4-16c0,0-2.5,7.2-1.3,12
		c0,0-16.8-18.5-1.7-54.2c0,0-4.9,3.6-8.6,10.3c0,0,1.3-18.4,26.4-30.5c0,0,1.7-9.9,12.8-15.1C276.2,77.5,267.9,85.1,267.3,91.6z"/>
</g>
<g id="kapsel_3" class="st0">
	<g class="st1">
		<path class="st37" d="M337.9,131.7c-0.6,1.5-1,6.1-0.8,13.1s-0.8,9.8-1.8,14.2c2.1-1.9,4.1-5.4,4.1-5.4c0,2.5-0.4,16.2-0.2,21.1
			c0.8-1.8,3.1-7.3,4.2-11.1c-0.2,2.1,0.2,7.9,0.2,7.9c2.1-4.5,6.9-22.3,6.9-22.3h1.2c0,0,1.3-5,2.2-11.8c1.1,1.3,5.3,3.3,5.3,3.3
			c-4.2-5.1-3.8-10.2-5.1-18.6c-2.3-15.6-10.5-40.5-39.2-50.1c-25.4-7.4-32.9,4.6-32.9,4.6c-7.3-2.7-18.9,0.9-29.4,14.2
			s-10.7,25.5-11.8,34.2c-1.2,10-5.7,15.2-5.4,15c3.3-1.1,6-4.2,6-4.2c0,6.8,1.9,13.4,1.9,13.4l1.3-0.4c0,0,3.2,15,7.1,21.1
			c0,0-0.3-6.4-0.2-9.3c1.3,4.1,4,10.8,5.2,12.5c-0.1-4.4-0.4-14.1-0.2-17.7c0,0,2.5,3,3.6,3.7c-1.3-4-2-6.6-2.1-11.1
			s-0.3-9.8-0.4-12c2.1,3.6,2.9,6.6,2.9,9.1c1.7-4.5,2.9-12.8,1.5-20.6c0,0,3.7,6.4,9.6,9.7c0,0-1-9.1-0.9-13.3
			c6.3,7,12.8,11.1,25.1,11.8c-2.5-2.6-3.1-4-3.7-5c4.1,1.7,15.3,2.5,19.1,5.7c-0.7-3.4-2.4-5.9-4-7.3c4.5,2.9,12.6,6.2,23.8,6.3
			c0,0-4.4-4.1-7.5-5.4C330.6,129.4,330.6,130.7,337.9,131.7z"/>
	</g>
</g>
<g id="bril" class="st0">
	<g class="st1">
		<g>
			<path class="st38" d="M250.9,142c-0.8,0.6-1.4,1.5-1.8,2.4v0h0c-0.4,1-0.5,2-0.3,3.1c0,0.1,0.1,0.3,0.1,0.4
				c0.4,1.6,1.4,3,2.7,4.1c1,0.8,2.2,2.3,2.4,5.2c0,0,0.6,12.3,10.7,13.2c10.1,0.9,21.3,1.6,24.5-6.1c3.3-7.6,1.6-16,8.4-16
				c6.8,0,5.1,8.4,8.4,16c3.3,7.6,14.4,7,24.5,6.1c10.1-0.9,10.7-13.2,10.7-13.2c0.2-2.9,1.4-4.4,2.4-5.2c1.3-1.1,2.4-2.4,2.7-4.1
				c0-0.1,0.1-0.3,0.1-0.4c0.2-1.1,0-2.1-0.3-3.1h0v0c0,0,0,0,0,0c-0.4-0.9-1-1.7-1.7-2.4h0c-0.7-0.6-1.4-1-2.3-1.2
				c-1.5-0.4-2.9-0.8-4.3-1.1l0,0c-16.4-3.8-28.1-0.8-33.9,0.8c-1.9,0.5-3.8,0.8-5.8,0.8h-1.1c-2,0-4-0.3-6-0.8
				c-5.8-1.6-17.5-4.6-33.8-0.8l0,0c-1.4,0.3-2.8,0.7-4.3,1.1C252.3,141,251.6,141.4,250.9,142"/>
		</g>
		<linearGradient id="SVGID_1_" gradientUnits="userSpaceOnUse" x1="306.6025" y1="154.5177" x2="338.7592" y2="154.5177">
			<stop  offset="0" style="stop-color:#2581C4"/>
			<stop  offset="1" style="stop-color:#D9EFFD"/>
		</linearGradient>
		<path class="st39" d="M322.2,167c0,0-10,0.5-11.9-3s-7.3-19.3,0-20.6c7.2-1.3,11.9-2.2,24.8,0c7.4,1.6,1.6,18.2,0,20.7
			C333.3,166.8,325,167,322.2,167z"/>
		
			<linearGradient id="SVGID_00000146490679007119467310000018305376693680775559_" gradientUnits="userSpaceOnUse" x1="256.6383" y1="154.5177" x2="288.795" y2="154.5177">
			<stop  offset="0" style="stop-color:#2581C4"/>
			<stop  offset="1" style="stop-color:#D9EFFD"/>
		</linearGradient>
		<path style="fill:url(#SVGID_00000146490679007119467310000018305376693680775559_);" d="M273.2,167c0,0,10,0.5,11.9-3
			s7.3-19.3,0-20.6c-7.2-1.3-11.9-2.2-24.8,0c-7.4,1.6-1.6,18.2,0,20.7C262.1,166.8,270.4,167,273.2,167z"/>
	</g>
</g>
<g id="pet" class="st0">
	<g class="st1">
		<path class="st41" d="M357.6,126.1c4.5-17.9-12-75.5-60-75.5c-45.1,0-62.1,52.1-60.5,75.5H357.6z"/>
		<path class="st42" d="M297.6,50.6c0,0,31.7,13.9,26.8,62.9h-54.6C269.8,113.4,265.8,67.6,297.6,50.6z"/>
		<path class="st43" d="M237.1,126.1c0,0,51-36.5,120.5,0c0,0-2.7,9.5,0,14.8c2.7,5.2-3.2,16.3-29.3,0c-13.8-8.6-42.7-8.7-56.5-1.8
			c-9.6,4.8-37.9,19.5-33.1,1C240.4,133.5,237.1,126.1,237.1,126.1z"/>
	</g>
</g>
<g id="accesoire" class="st0">
	<g class="st1">
		<g>
			<path class="st44" d="M256.8,182.1c-3.8,2.8-7.8,3.9-10.8,3.8c-3,0-6-0.9-8.4-2.8c-3.8-2.9-5.4-7.9-6.3-12.6
				c-0.6-3.5-0.9-7.1-0.8-10.7c0.2-4.8,1.2-9.5,3.3-13.9c1.8-3.7,5.6-6.5,9.4-7.9c0.7-0.2,1.4-0.5,2.1-0.7c3.4-1,7.4-1.4,11.5-1.3
				c-2.9,9.3-3.6,15.5-3.8,24.3C252.7,167.9,253.6,173.7,256.8,182.1z"/>
		</g>
		<path class="st44" d="M350.8,137.4c-3.4-1-7.4-1.4-11.5-1.3c0,0,3.8-47.6-41.3-47.6c-45.1,0-41.3,47.6-41.3,47.6
			c-4.1-0.2-8.2,0.3-11.5,1.3c-0.3-7.1-0.6-59.9,52.8-59.9C351.4,77.5,351.1,130.3,350.8,137.4z"/>
		<path class="st44" d="M256.8,136.2l-11.5,2c0,0,0-0.3,0-0.8C248.6,136.5,252.7,136,256.8,136.2z"/>
	</g>
	<g class="st1">
		<g>
			<path class="st44" d="M364.9,170.5c-0.9,4.7-2.5,9.6-6.3,12.6c-2.4,1.9-5.4,2.8-8.4,2.8c-3,0-7.6-1-11.5-3.8
				c2.6-8.3,3.8-13.5,4.5-21.5c0.7-8.8-1-15-3.8-24.3c4.1-0.2,8.2,0.3,11.5,1.3c0.7,0.2,1.4,0.4,2.1,0.7c3.8,1.4,7.6,4.3,9.4,7.9
				c2.1,4.3,3.1,9.1,3.3,13.9C365.8,163.5,365.5,167,364.9,170.5z"/>
		</g>
		<path class="st44" d="M350.8,137.4c0,0.5,0,0.8,0,0.8l-11.5-2C343.4,136,347.5,136.5,350.8,137.4z"/>
	</g>
</g>
<g id="kroon" class="st0">
	<g class="st1">
		<path class="st45" d="M300,6.2c-3.8,26.3-23.3,37-23.3,37c6,5.1,12.2,14,14.3,20.9c3.5,11.5-5.6,18.3-11.4,15
			c-6.4-3.7-2.9-10,0.9-11.8c-10.6-15.7-41.8-24.9-41.8-24.9c21.4,15.7,20.7,41.1,20.7,41.1c-14.7-29.1-33.1-28.3-33.1-28.3
			c18.8,9.3,23.1,40.4,23.1,40.4s45.5,33.1,95,1.2c0,0,4-32.4,20.5-41.7c0,0-16.2-0.8-29.1,28.3c0,0-0.7-25.4,18.1-41.1
			c0,0-27.4,9.2-36.7,24.9c3.3,1.8,6.4,8.1,0.8,11.8c-5.1,3.4-13.1-3.4-10-15c1.8-6.9,7.2-15.8,12.5-20.9
			C320.5,43.2,303.4,32.5,300,6.2"/>
		<circle class="st46" cx="259.2" cy="89.9" r="3.3"/>
		<circle class="st46" cx="336.3" cy="89.9" r="3.3"/>
		<circle class="st46" cx="278.4" cy="91.3" r="4.1"/>
		<circle class="st46" cx="300.9" cy="89.9" r="5.9"/>
		<circle class="st46" cx="321.7" cy="91.3" r="4.1"/>
		<ellipse class="st46" cx="299.5" cy="41" rx="7.1" ry="9.2"/>
		<path class="st46" d="M249.3,95.5c0,0-5.7,1.4-1,7.4c5,6.3,65.6,22,97,1.2c0,0,4.3-3.5-1.1-7.4C344.3,96.8,307,117.2,249.3,95.5z"
			/>
	</g>
</g>
<g id="hoed" class="st0">
	<g class="st1">
		<path class="st47" d="M374.7,81.3c0,0,11.1-3.5,7.3,9.1s-18.3,26.3-27.5,33.6c0,0-11.9-20.9-21.5-24.8
			C333,99.2,360.1,89.7,374.7,81.3z"/>
		<path class="st47" d="M220.4,91.1c0,0-13.8-5-6.8,12.5s26.7,29.1,26.7,29.1s2.5-22.9,17.7-30.8C258.1,101.9,229.1,92.2,220.4,91.1
			z"/>
		<path class="st48" d="M220.4,91.1c0,0,47.9,34.9,76.6,34.9c28.7,0,52.5-23.8,77.7-44.6c0,0-18.4,9.7-29.8,15.2
			c0,0-6.8-17.9-7.6-32.5s-11.6-25.7-24.1-11.6s-22.5,1.4-23.5,0.3c-1.1-1.1-23.1-13.8-28.4,10c-4.8,21.6-11.1,31.2-14,36.1
			C247.3,98.7,228.8,93,220.4,91.1z"/>
		<path class="st47" d="M252.6,89.2c0,0,53.7-4.1,89.8-0.3l2.5,7.6c0,0-48.9,12-97.6,2.3L252.6,89.2z"/>
		<polygon class="st37" points="297.6,89.2 299.6,93.4 304.3,94.1 300.9,97.3 301.7,101.9 297.6,99.8 293.4,101.9 294.2,97.3 
			290.8,94.1 295.5,93.4 		"/>
	</g>
</g>
</svg>
