<svg id="body" xmlns="http://www.w3.org/2000/svg" viewBox="0 0 595.28 968.5"><defs><style>.cls-1{fill:#e5b69c;}.cls-2{fill:#1f2b4f;}</style></defs><g id="onderlichaam"><g id="benen"><path class="cls-1" d="M355.06,701.14s4.73-82.36,1.05-107.95c.51-17.87,2.64-65.84,3.24-86.54s-1.41-66.09-3.35-73.39c0,0-25.07,5.84-53.6,35.91,0,0,8.77,51,12.34,69.38s2.59,15.8,4.35,22.47a83,83,0,0,1,1.69,8.39c1.42,9.42.66,18.94.54,28.46-.32,26.59,3.95,59,4.57,66.81.68,8.51,3,36.25,3,36.25Z"/><path class="cls-1" d="M266.19,701.42s2.33-28.23,3-36.74c.63-7.85,4.9-40.22,4.57-66.81-.11-9.52-.87-19,.55-28.46A83,83,0,0,1,276,561c1.75-6.67.77-4.09,4.34-22.47s12.52-69.38,12.52-69.38c-37-36.53-54-35.06-54-35.06-1.93,7.3-3.76,51.84-3.16,72.54s2.73,68.67,3.24,86.54c-3.68,25.59,1,108.23,1,108.23Z"/></g><g id="boxer"><path class="cls-2" d="M292.87,469.17s-32.51-33.7-54-35.06c0,0-4.13-24.51,2-34.39,46,14.64,113,0,113,0s2.8,19.41,2.12,33.54c0,0-22.62,4.25-53.6,35.91Z"/></g></g></svg>